<svg xmlns="http://www.w3.org/2000/svg" width="48" height="48" viewBox="0 0 48 48" fill="none">
  <g clip-path="url(#clip0_1511_2079)">
    <mask id="mask0_1511_2079" style="mask-type:luminance" maskUnits="userSpaceOnUse" x="0" y="0" width="48" height="48">
      <path d="M0 0H47.5V47.5H0V0Z" fill="white"/>
    </mask>
    <g mask="url(#mask0_1511_2079)">
      <path d="M46.2475 27.4561L46.25 27.4223C46.25 27.2111 46.2212 27.0111 46.1813 26.8186C45.585 23.0148 41.165 9.86857 40 7.53857C38.75 5.03857 35.8838 5.38607 35 6.26982C33.75 7.51982 33.75 10.0098 35 10.0098C36.25 10.0098 38.75 9.95607 40 13.7498C40.9875 16.7486 42.1113 21.2236 42.8363 24.2486C40.8363 23.2673 37.64 22.7736 34.2962 22.7736C30.635 22.7736 27.7362 23.1398 26.2025 23.9711C25.5825 23.8311 24.785 23.7498 23.75 23.7498C22.715 23.7498 21.9175 23.8311 21.2975 23.9698C19.7638 23.1398 16.865 22.7736 13.2025 22.7736C9.86 22.7736 6.66375 23.2673 4.66375 24.2486C5.38875 21.2236 6.5125 16.7473 7.5 13.7498C8.75 9.95607 11.25 10.0098 12.5 10.0098C13.75 10.0098 13.75 7.51982 12.5 6.26982C11.6163 5.38607 8.75 5.03857 7.5 7.53857C6.335 9.86857 1.91625 23.0136 1.31875 26.8186C1.2744 27.0168 1.25135 27.2192 1.25 27.4223L1.2525 27.4561C1.25108 27.4706 1.25025 27.4852 1.25 27.4998H1.255C1.2825 28.5636 1.8625 29.4136 2.5775 29.4136C2.635 29.4136 2.68875 29.3998 2.74375 29.3898C3.1375 32.7948 4.185 36.3336 5.23375 37.3823C7.89 40.0386 15.8588 40.0386 18.515 37.3823C20.145 35.7536 21.6413 30.7548 22.2313 27.6636C22.7062 27.5723 23.2138 27.4998 23.75 27.4998C24.2862 27.4998 24.7938 27.5723 25.2687 27.6636C25.8575 30.7548 27.355 35.7536 28.9837 37.3823C31.64 40.0386 39.6087 40.0386 42.265 37.3823C43.315 36.3336 44.3625 32.7948 44.7562 29.3898C44.8112 29.3998 44.8662 29.4136 44.9212 29.4136C45.6375 29.4136 46.2175 28.5636 46.245 27.4998H46.25L46.2475 27.4561Z" fill="#292F33"/>
      <path d="M19.8434 28.8826C19.8434 30.3438 18.4622 34.1613 16.9209 35.7001C14.9734 37.6488 9.12965 37.6488 7.18215 35.7001C6.2084 34.7263 5.2334 32.3351 5.2334 29.4138C5.2334 27.4651 9.1684 26.7576 13.2034 26.7576C17.1872 26.7576 19.8434 27.4213 19.8434 28.8826ZM27.6559 28.8826C27.6559 30.3438 29.0371 34.1613 30.5784 35.7001C32.5259 37.6488 38.3697 37.6488 40.3172 35.7001C41.2909 34.7263 42.2659 32.3351 42.2659 29.4138C42.2659 27.4651 38.3309 26.7576 34.2959 26.7576C30.3122 26.7576 27.6559 27.4213 27.6559 28.8826Z" fill="#55ACEE"/>
    </g>
  </g>
  <defs>
    <clipPath id="clip0_1511_2079">
      <rect width="47.5" height="47.5" fill="white"/>
    </clipPath>
  </defs>
</svg>