<svg xmlns="http://www.w3.org/2000/svg" width="21" height="20" viewBox="0 0 21 20" fill="none">
  <path d="M12.3418 19.1218C12.8351 19.9588 13.9055 20.2554 14.7346 19.7575L16.8512 16.2136M12.3418 19.1218L12.7756 18.8731L12.774 18.8703M12.3418 19.1218L12.7726 18.868C12.7731 18.8688 12.7735 18.8695 12.774 18.8703M12.3418 19.1218L12.2264 18.9205C11.2714 17.2572 9.71814 17.2572 8.77361 18.9205L20.5 9.07021M12.774 18.8703C13.1337 19.4779 13.8985 19.6764 14.4772 19.3289L14.4845 19.3245L14.4845 19.3245L16.3001 18.2757L16.3004 18.2755C17.0135 17.8642 17.2614 16.9311 16.8512 16.2136M12.774 18.8703L12.6601 18.6718L12.66 18.6716C12.1303 17.7491 11.3645 17.173 10.4961 17.173C9.62712 17.173 8.86381 17.7496 8.33934 18.6727C8.33917 18.673 8.339 18.6733 8.33882 18.6736L8.22602 18.8703C7.86631 19.4779 7.10152 19.6764 6.5228 19.3289L6.52284 19.3288L6.51548 19.3245L4.69989 18.2757L4.69961 18.2755C3.98728 17.8646 3.7375 16.9417 4.14959 16.2122C4.67908 15.2892 4.78963 14.3372 4.35927 13.5833C3.92774 12.8274 3.05238 12.4453 1.994 12.4453C1.17434 12.4453 0.5 11.7642 0.5 10.9323V9.06769C0.5 8.22866 1.18143 7.55474 1.994 7.55474C3.0523 7.55474 3.9274 7.17268 4.35901 6.41844C4.78971 5.66578 4.67923 4.71614 4.14929 3.79788C3.73701 3.06736 3.98852 2.13467 4.69961 1.72446L4.69989 1.72431L6.51548 0.675457L6.51551 0.67552L6.5228 0.671144C7.10539 0.321249 7.86476 0.526717 8.20172 1.12389L8.20171 1.12389L8.20345 1.12692L8.31889 1.32822L8.31901 1.32843C8.84867 2.25092 9.6145 2.82697 10.4829 2.82697C11.3519 2.82697 12.1152 2.25037 12.6397 1.32728C12.6398 1.32697 12.64 1.32667 12.6402 1.32637L12.753 1.12969C13.1127 0.522149 13.8775 0.323568 14.4562 0.671144L14.4562 0.671205L14.4635 0.675457L16.2791 1.72431L16.2794 1.72446C16.9919 2.13549 17.2416 3.05883 16.8291 3.78843C16.3045 4.71229 16.1976 5.66431 16.6294 6.41744C17.0622 7.17245 17.9368 7.55474 18.9955 7.55474C19.8136 7.55474 20.4908 8.23474 20.5 9.07021M16.8512 16.2136C16.321 15.2902 16.2101 14.3376 16.6407 13.5833C17.0723 12.8274 17.9476 12.4453 19.006 12.4453C19.8186 12.4453 20.5 11.7713 20.5 10.9323V9.07021M16.8512 16.2136L20.5 9.07021M6.58396 10C6.58396 12.1681 8.3356 13.9432 10.4948 13.9432C12.6539 13.9432 14.4055 12.1681 14.4055 10C14.4055 7.83192 12.6539 6.0568 10.4948 6.0568C8.3356 6.0568 6.58396 7.83192 6.58396 10Z" stroke="#2F2F2F"/>
</svg>