<svg xmlns="http://www.w3.org/2000/svg" width="48" height="48" viewBox="0 0 48 48" fill="none">
  <g clip-path="url(#clip0_1510_2056)">
    <mask id="mask0_1510_2056" style="mask-type:luminance" maskUnits="userSpaceOnUse" x="0" y="0" width="48" height="48">
      <path d="M0 0H47.5V47.5H0V0Z" fill="white"/>
    </mask>
    <g mask="url(#mask0_1510_2056)">
      <path d="M23.9534 3.57769C23.9541 3.87607 23.8957 4.17164 23.7817 4.44737C23.6677 4.7231 23.5002 4.97355 23.289 5.18431C23.0778 5.39506 22.827 5.56195 22.551 5.67538C22.275 5.7888 21.9793 5.84651 21.6809 5.84519C21.3848 5.84431 21.0918 5.78354 20.8197 5.66652C20.5476 5.5495 20.302 5.37865 20.0977 5.16426C19.8933 4.94987 19.7345 4.69635 19.6306 4.41897C19.5268 4.14159 19.4801 3.84608 19.4934 3.55019C19.5434 2.33144 20.5597 1.37269 21.7647 1.38144C22.3456 1.38441 22.9017 1.617 23.3117 2.02845C23.7218 2.43989 23.9524 2.99681 23.9534 3.57769Z" fill="#939598"/>
      <path d="M43.5478 19.3965C47.0378 39.6402 47.3228 41.3715 25.6528 41.2327L21.4591 41.2065C2.58533 41.0865 -0.21217 41.0002 3.58283 19.1427C5.20283 9.81396 13.1853 5.06021 22.0228 5.11646L25.1191 5.13522C33.9566 5.19147 41.9353 10.0477 43.5478 19.3965Z" fill="#D1D3D4"/>
      <path d="M26.6301 3.59518C26.6405 3.89109 26.5907 4.18602 26.4839 4.46216C26.377 4.73831 26.2154 4.98994 26.0086 5.20186C25.8018 5.41378 25.5542 5.58159 25.2808 5.69517C25.0073 5.80875 24.7137 5.86573 24.4176 5.86268C24.119 5.8604 23.8238 5.79909 23.549 5.68228C23.2741 5.56548 23.0251 5.39548 22.8162 5.18207C22.6074 4.96865 22.4427 4.71604 22.3319 4.43876C22.221 4.16149 22.166 3.86503 22.1701 3.56643C22.1771 2.9858 22.4138 2.43156 22.8285 2.02509C23.2431 1.61861 23.802 1.39301 24.3826 1.39768C24.9681 1.40411 25.5286 1.63617 25.9473 2.04552C26.3659 2.45488 26.6105 3.00997 26.6301 3.59518Z" fill="#D1D3D4"/>
      <path d="M44.205 22.7751C47.9487 44.5026 48.2537 46.3564 25.7325 46.2126L21.3725 46.1851C1.7575 46.0601 -1.15375 45.9826 2.92 22.5126C4.64375 12.5851 12.8825 7.54765 21.975 7.6064L25.1625 7.6264C34.2562 7.6839 42.49 12.8251 44.205 22.7751Z" fill="#EA596E"/>
      <path d="M21.4254 8.72397C21.4254 8.72397 13.0291 18.3715 15.1991 20.7877C17.4604 23.309 21.4254 8.72397 21.4254 8.72397ZM24.2554 8.74147C24.2554 8.74147 32.5091 18.4952 30.3041 20.884C28.0066 23.3752 24.2554 8.74147 24.2554 8.74147Z" fill="#DD2E44"/>
    </g>
  </g>
  <defs>
    <clipPath id="clip0_1510_2056">
      <rect width="47.5" height="47.5" fill="white"/>
    </clipPath>
  </defs>
</svg>