<svg width="56" height="56" viewBox="0 0 56 56" fill="none" xmlns="http://www.w3.org/2000/svg">
<g filter="url(#filter0_d_1494_4432)">
<rect x="6" y="4" width="40" height="40" rx="20" fill="black"/>
</g>
<g clip-path="url(#clip0_1494_4432)">
<path d="M31.1819 32H19L20.2356 20.0967H29.9463L30.143 22.0828L31.1819 32Z" fill="#FF491F"/>
<path d="M25.2561 23.9443H32.0042L32.8628 32.0001H24.3975L25.2561 23.9443Z" fill="#ED3618"/>
<path d="M25.9319 23.9443H32.68L33.5386 32.0001H25.0732L25.9319 23.9443Z" fill="#FFE14D"/>
<path d="M27.7109 21.5027C27.6465 21.5027 27.5848 21.4771 27.5394 21.4316C27.4939 21.3861 27.4683 21.3245 27.4683 21.2601V18.8611C27.4802 18.5414 27.4275 18.2227 27.3133 17.9238C27.1992 17.625 27.026 17.3522 26.804 17.1219C26.582 16.8915 26.3159 16.7083 26.0215 16.5831C25.7271 16.458 25.4105 16.3935 25.0906 16.3935C24.7707 16.3935 24.4541 16.458 24.1597 16.5831C23.8653 16.7083 23.5992 16.8915 23.3772 17.1219C23.1553 17.3522 22.982 17.625 22.8679 17.9238C22.7537 18.2227 22.701 18.5414 22.7129 18.8611V21.2634C22.7169 21.2974 22.7136 21.3319 22.7033 21.3645C22.693 21.3971 22.6759 21.4272 22.6532 21.4528C22.6304 21.4784 22.6025 21.4988 22.5713 21.5128C22.5401 21.5268 22.5062 21.5341 22.472 21.5341C22.4378 21.5341 22.404 21.5268 22.3727 21.5128C22.3415 21.4988 22.3136 21.4784 22.2908 21.4528C22.2681 21.4272 22.251 21.3971 22.2407 21.3645C22.2304 21.3319 22.2272 21.2974 22.2311 21.2634V18.8611C22.2311 18.1023 22.5326 17.3746 23.0691 16.838C23.6057 16.3014 24.3334 16 25.0923 16C25.8511 16 26.5788 16.3014 27.1154 16.838C27.6519 17.3746 27.9534 18.1023 27.9534 18.8611V21.2634C27.9525 21.3272 27.9266 21.388 27.8812 21.4328C27.8358 21.4776 27.7746 21.5027 27.7109 21.5027ZM29.3069 28.7816C29.0698 28.7816 28.835 28.7349 28.6159 28.6442C28.3968 28.5534 28.1977 28.4204 28.03 28.2527C27.8623 28.085 27.7293 27.886 27.6386 27.6669C27.5478 27.4478 27.5011 27.213 27.5011 26.9758V25.4158C27.4971 25.3818 27.5004 25.3474 27.5107 25.3147C27.521 25.2821 27.5381 25.252 27.5608 25.2264C27.5836 25.2009 27.6115 25.1804 27.6427 25.1664C27.6739 25.1524 27.7078 25.1451 27.742 25.1451C27.7762 25.1451 27.81 25.1524 27.8413 25.1664C27.8725 25.1804 27.9004 25.2009 27.9232 25.2264C27.9459 25.252 27.963 25.2821 27.9733 25.3147C27.9836 25.3474 27.9868 25.3818 27.9829 25.4158V26.9791C27.9829 27.3298 28.1222 27.6662 28.3702 27.9142C28.6182 28.1622 28.9546 28.3015 29.3053 28.3015C29.656 28.3015 29.9924 28.1622 30.2404 27.9142C30.4884 27.6662 30.6277 27.3298 30.6277 26.9791V25.4158C30.6346 25.3568 30.6629 25.3023 30.7073 25.2628C30.7517 25.2233 30.8091 25.2014 30.8686 25.2014C30.928 25.2014 30.9854 25.2233 31.0298 25.2628C31.0742 25.3023 31.1026 25.3568 31.1095 25.4158V26.9791C31.1086 27.4569 30.9184 27.9149 30.5805 28.2527C30.2427 28.5906 29.7847 28.7808 29.3069 28.7816Z" fill="white"/>
</g>
<defs>
<filter id="filter0_d_1494_4432" x="0" y="0" width="56" height="56" filterUnits="userSpaceOnUse" color-interpolation-filters="sRGB">
<feFlood flood-opacity="0" result="BackgroundImageFix"/>
<feColorMatrix in="SourceAlpha" type="matrix" values="0 0 0 0 0 0 0 0 0 0 0 0 0 0 0 0 0 0 127 0" result="hardAlpha"/>
<feOffset dx="2" dy="4"/>
<feGaussianBlur stdDeviation="4"/>
<feColorMatrix type="matrix" values="0 0 0 0 0.406337 0 0 0 0 0.566001 0 0 0 0 0.645833 0 0 0 0.28 0"/>
<feBlend mode="normal" in2="BackgroundImageFix" result="effect1_dropShadow_1494_4432"/>
<feBlend mode="normal" in="SourceGraphic" in2="effect1_dropShadow_1494_4432" result="shape"/>
</filter>
<clipPath id="clip0_1494_4432">
<rect width="14.5383" height="16" fill="white" transform="translate(19 16)"/>
</clipPath>
</defs>
</svg>
