<svg xmlns="http://www.w3.org/2000/svg" width="48" height="48" viewBox="0 0 48 48" fill="none">
  <g clip-path="url(#clip0_1511_2067)">
    <mask id="mask0_1511_2067" style="mask-type:luminance" maskUnits="userSpaceOnUse" x="0" y="0" width="48" height="48">
      <path d="M0 0H47.5V47.5H0V0Z" fill="white"/>
    </mask>
    <g mask="url(#mask0_1511_2067)">
      <path d="M15 3.75013C11.25 3.75013 1.25 6.25013 1.25 8.75013C1.25 11.2501 2.5 17.5001 3.75 20.0001C5 22.5001 13.75 20.0001 15 18.7501C16.25 17.5001 17.5 3.75013 15 3.75013Z" fill="#3B88C3"/>
      <path d="M2.5 7.14625C1.69 7.61 1.25 8.2075 1.25 8.75C1.25 11.25 2.5 17.5 3.75 20C4.10125 20.7037 5.04875 20.9725 6.25 21.0625C5 17.5 3.75 12.5 2.5 7.14625Z" fill="#55ACEE"/>
      <path d="M32.5 3.75013C36.25 3.75013 46.25 6.25013 46.25 8.75013C46.25 11.2501 45 17.5001 43.75 20.0001C42.5 22.5001 33.75 20.0001 32.5 18.7501C31.25 17.5001 30 3.75013 32.5 3.75013Z" fill="#3B88C3"/>
      <path d="M45 7.14625C45.81 7.61 46.25 8.2075 46.25 8.75C46.25 11.25 45 17.5 43.75 20C43.3988 20.7037 42.4513 20.9725 41.25 21.0625C42.5 17.5 43.75 12.5 45 7.14625Z" fill="#55ACEE"/>
      <path d="M32.4998 3.75H31.1648C30.6436 5.86875 27.5261 7.5 23.7498 7.5C19.9736 7.5 16.8561 5.86875 16.3348 3.75H14.9998C12.2386 3.75 8.74982 5.98875 8.74982 8.75C8.74982 8.75 8.74982 33.75 7.49982 38.75C6.24982 43.75 9.73857 43.75 12.4998 43.75H34.9998C37.7611 43.75 41.2498 43.75 39.9998 38.75C38.7498 33.75 38.7498 8.75 38.7498 8.75C38.7498 5.98875 35.2611 3.75 32.4998 3.75Z" fill="#3B88C3"/>
      <path d="M23.75 10C28.5825 10 32.5 7.20125 32.5 3.75H31.165C30.6437 5.86875 27.5262 7.5 23.75 7.5C19.9738 7.5 16.8562 5.86875 16.335 3.75H15C15 7.20125 18.9175 10 23.75 10Z" fill="#55ACEE"/>
    </g>
  </g>
  <defs>
    <clipPath id="clip0_1511_2067">
      <rect width="47.5" height="47.5" fill="white"/>
    </clipPath>
  </defs>
</svg>