<svg width="48" height="48" viewBox="0 0 48 48" fill="none" xmlns="http://www.w3.org/2000/svg">
<g filter="url(#filter0_b_1592_2467)">
<circle cx="24" cy="24" r="24" fill="#F6F6F6"/>
</g>
<g clip-path="url(#clip0_1592_2467)">
<path d="M32.0101 16.6727C32.0735 16.8636 32.0735 25.2 32.0735 25.2C32.0735 26.6 30.932 27.7455 29.5368 27.7455C28.8392 27.7455 28.2051 28.3182 28.2051 29.0818V30.8636L30.1076 32.3909V29.6545H31.4393C32.8345 29.6545 33.976 28.5091 33.976 27.1091V19.1545C33.976 17.9455 33.1516 16.9273 32.0101 16.6727Z" fill="#FFE1DA"/>
<path d="M33.9776 20.2364C33.6606 20.2364 33.3435 20.5545 33.3435 20.8727C33.3435 20.8727 33.3435 20.8727 33.3435 20.9364V27.1091C33.3435 28.1273 32.5191 29.0182 31.441 29.0182H30.1092C29.919 29.0182 29.7921 29.0818 29.6653 29.2091C29.5385 29.3364 29.475 29.4636 29.475 29.6545V31.0545L27.1286 29.1454C27.0018 29.0818 26.8749 29.0182 26.7481 29.0182H17.4892H17.4258C17.1087 29.0182 16.7916 29.2727 16.7916 29.6545C16.7916 29.9727 17.0453 30.2909 17.4258 30.2909H21.2308H21.2942H26.5578L29.7287 32.9C29.8555 32.9636 29.9824 33.0273 30.1092 33.0273C30.236 33.0273 30.2995 33.0273 30.3629 32.9636C30.5531 32.8364 30.7434 32.6454 30.7434 32.3909V30.2909H31.441C33.2166 30.2909 34.6118 28.8909 34.6118 27.1091V20.8727C34.6118 20.5545 34.2947 20.2364 33.9776 20.2364ZM15.5867 27.1091V19.1545C15.5867 18.1364 16.4111 17.2454 17.4892 17.2454H31.441C32.4556 17.2454 33.2801 18.0727 33.3435 19.0273C33.3435 19.3454 33.6606 19.6636 34.0411 19.6C34.4216 19.6 34.6752 19.2818 34.6118 18.9636C34.485 17.3091 33.1532 15.9727 31.5044 15.9727H17.4892C15.7135 15.9727 14.3184 17.3727 14.3184 19.1545V27.1091C14.3184 27.9364 14.6354 28.7636 15.2696 29.4C15.3964 29.5273 15.5233 29.5909 15.7135 29.5909C15.9038 29.5909 16.0306 29.5273 16.1575 29.4C16.2843 29.2727 16.3477 29.1454 16.3477 28.9545C16.3477 28.7636 16.2843 28.6364 16.1575 28.5091C15.777 28.1273 15.5867 27.6182 15.5867 27.1091Z" fill="#414141"/>
<path d="M19.0059 22.7818C19.0059 23.3546 19.5132 23.8636 20.0839 23.8636C20.6547 23.8636 21.162 23.3546 21.162 22.7818C21.162 22.2091 20.6547 21.7 20.0839 21.7C19.4498 21.7 19.0059 22.1455 19.0059 22.7818ZM23.3816 22.7818C23.3816 23.3546 23.889 23.8636 24.4597 23.8636C25.0305 23.8636 25.5378 23.3546 25.5378 22.7818C25.5378 22.2091 25.0305 21.7 24.4597 21.7C23.889 21.7 23.3816 22.1455 23.3816 22.7818ZM27.7574 22.7818C27.7574 23.3546 28.2647 23.8636 28.8355 23.8636C29.4063 23.8636 29.9136 23.3546 29.9136 22.7818C29.9136 22.2091 29.4063 21.7 28.8355 21.7C28.2647 21.7 27.7574 22.1455 27.7574 22.7818Z" fill="#414141"/>
</g>
<defs>
<filter id="filter0_b_1592_2467" x="-7" y="-7" width="62" height="62" filterUnits="userSpaceOnUse" color-interpolation-filters="sRGB">
<feFlood flood-opacity="0" result="BackgroundImageFix"/>
<feGaussianBlur in="BackgroundImageFix" stdDeviation="3.5"/>
<feComposite in2="SourceAlpha" operator="in" result="effect1_backgroundBlur_1592_2467"/>
<feBlend mode="normal" in="SourceGraphic" in2="effect1_backgroundBlur_1592_2467" result="shape"/>
</filter>
<clipPath id="clip0_1592_2467">
<rect width="20.9276" height="21" fill="white" transform="translate(14 14)"/>
</clipPath>
</defs>
</svg>
