<svg xmlns="http://www.w3.org/2000/svg" width="20" height="21" viewBox="0 0 20 21" fill="none">
<path d="M17.2125 2.67046C17.2731 2.85227 17.2731 10.7917 17.2731 10.7917C17.2731 12.125 16.1822 13.2159 14.8489 13.2159C14.1822 13.2159 13.5762 13.7614 13.5762 14.4886V16.1856L15.3944 17.6402V15.0341H16.6671C18.0004 15.0341 19.0913 13.9432 19.0913 12.6098V5.03409C19.0913 3.88258 18.3034 2.91288 17.2125 2.67046Z" fill="#FFE1DA"/>
<path d="M19.0906 6.06439C18.7876 6.06439 18.4846 6.36742 18.4846 6.67045C18.4846 6.67045 18.4846 6.67045 18.4846 6.73106V12.6098C18.4846 13.5795 17.6967 14.428 16.6664 14.428H15.3936C15.2118 14.428 15.0906 14.4886 14.9694 14.6098C14.8482 14.7311 14.7876 14.8523 14.7876 15.0341V16.3674L12.5452 14.5492C12.4239 14.4886 12.3027 14.428 12.1815 14.428H3.33304H3.27243C2.9694 14.428 2.66637 14.6705 2.66637 15.0341C2.66637 15.3371 2.9088 15.6401 3.27243 15.6401H6.90879H6.9694H11.9997L15.03 18.125C15.1512 18.1856 15.2724 18.2462 15.3936 18.2462C15.5149 18.2462 15.5755 18.2462 15.6361 18.1856C15.8179 18.0644 15.9997 17.8826 15.9997 17.6401V15.6401H16.6664C18.3633 15.6401 19.6967 14.3068 19.6967 12.6098V6.67045C19.6967 6.36742 19.3936 6.06439 19.0906 6.06439ZM1.51486 12.6098V5.03409C1.51486 4.06439 2.30273 3.21591 3.33304 3.21591H16.6664C17.6361 3.21591 18.4239 4.00378 18.4846 4.91288C18.4846 5.21591 18.7876 5.51894 19.1512 5.45833C19.5149 5.45833 19.7573 5.1553 19.6967 4.85227C19.5755 3.27651 18.3027 2.00378 16.727 2.00378H3.33304C1.63607 2.00378 0.302734 3.33712 0.302734 5.03409V12.6098C0.302734 13.3977 0.605765 14.1856 1.21183 14.7917C1.33304 14.9129 1.45425 14.9735 1.63607 14.9735C1.81789 14.9735 1.9391 14.9129 2.06031 14.7917C2.18152 14.6705 2.24213 14.5492 2.24213 14.3674C2.24213 14.1856 2.18152 14.0644 2.06031 13.9432C1.69667 13.5795 1.51486 13.0947 1.51486 12.6098Z" fill="black"/>
<path d="M4.78809 8.48863C4.78809 9.03409 5.27293 9.51893 5.81839 9.51893C6.36384 9.51893 6.84869 9.03409 6.84869 8.48863C6.84869 7.94318 6.36384 7.45833 5.81839 7.45833C5.21233 7.45833 4.78809 7.88257 4.78809 8.48863ZM8.9699 8.48863C8.9699 9.03409 9.45475 9.51893 10.0002 9.51893C10.5457 9.51893 11.0305 9.03409 11.0305 8.48863C11.0305 7.94318 10.5457 7.45833 10.0002 7.45833C9.45475 7.45833 8.9699 7.88257 8.9699 8.48863ZM13.1517 8.48863C13.1517 9.03409 13.6366 9.51893 14.182 9.51893C14.7275 9.51893 15.2123 9.03409 15.2123 8.48863C15.2123 7.94318 14.7275 7.45833 14.182 7.45833C13.6366 7.45833 13.1517 7.88257 13.1517 8.48863Z" fill="black"/>
</svg>