<svg xmlns="http://www.w3.org/2000/svg" width="48" height="48" viewBox="0 0 48 48" fill="none">
  <g clip-path="url(#clip0_1506_1970)">
    <path d="M24.037 10.5396V20.7442C24.0369 20.9928 23.9381 21.2312 23.7623 21.407C23.5865 21.5828 23.3481 21.6816 23.0995 21.6817H11.9883C11.7397 21.6816 11.5013 21.5828 11.3255 21.407C11.1497 21.2312 11.0509 20.9928 11.0508 20.7442V10.5396C11.0507 10.4164 11.075 10.2945 11.1221 10.1807C11.1692 10.067 11.2382 9.96362 11.3253 9.87656C11.4123 9.78949 11.5157 9.72044 11.6295 9.67334C11.7432 9.62624 11.8652 9.60201 11.9883 9.60205H23.0995C23.2227 9.60201 23.3446 9.62624 23.4583 9.67334C23.5721 9.72044 23.6755 9.78949 23.7625 9.87656C23.8496 9.96362 23.9186 10.067 23.9657 10.1807C24.0128 10.2945 24.0371 10.4164 24.037 10.5396Z" fill="#FF6666"/>
    <path d="M25.3209 21.6816H14.9811C14.2731 21.6816 13.6992 22.2555 13.6992 22.9634C13.6992 23.6714 14.2731 24.2452 14.9811 24.2452H25.3209C26.0289 24.2452 26.6028 23.6714 26.6028 22.9634C26.6028 22.2555 26.0289 21.6816 25.3209 21.6816Z" fill="#4A4F60"/>
    <path d="M25.3213 21.6817H22.5088C22.678 21.6802 22.8459 21.7123 23.0027 21.7761C23.1595 21.8399 23.3021 21.934 23.4223 22.0532C23.5425 22.1724 23.6379 22.3142 23.703 22.4704C23.7681 22.6266 23.8016 22.7942 23.8016 22.9635C23.8016 23.1327 23.7681 23.3003 23.703 23.4566C23.6379 23.6128 23.5425 23.7546 23.4223 23.8738C23.3021 23.9929 23.1595 24.0871 23.0027 24.1509C22.8459 24.2146 22.678 24.2467 22.5088 24.2453H25.3213C25.4905 24.2467 25.6584 24.2146 25.8152 24.1509C25.972 24.0871 26.1146 23.9929 26.2348 23.8738C26.355 23.7546 26.4504 23.6128 26.5155 23.4566C26.5806 23.3003 26.6141 23.1327 26.6141 22.9635C26.6141 22.7942 26.5806 22.6266 26.5155 22.4704C26.4504 22.3142 26.355 22.1724 26.2348 22.0532C26.1146 21.934 25.972 21.8399 25.8152 21.7761C25.6584 21.7123 25.4905 21.6802 25.3213 21.6817Z" fill="#3B3F4D"/>
    <path d="M21.02 36.2797C21.02 37.4934 20.5378 38.6575 19.6796 39.5157C18.8214 40.374 17.6573 40.8561 16.4436 40.8561C15.2299 40.8561 14.0658 40.374 13.2076 39.5157C12.3493 38.6575 11.8672 37.4934 11.8672 36.2797V34.9081L21.02 34.6255V36.2797Z" fill="#4A4F60"/>
    <path d="M19.6135 34.669V36.2797C19.6134 37.3716 19.223 38.4275 18.5127 39.2568C17.8025 40.0862 16.8191 40.6343 15.7402 40.8022C16.3928 40.9032 17.0595 40.8618 17.6945 40.681C18.3296 40.5001 18.918 40.1841 19.4195 39.7545C19.921 39.3249 20.3237 38.792 20.5999 38.1922C20.8761 37.5924 21.0193 36.94 21.0198 36.2797V34.6255L19.6135 34.669Z" fill="#3B3F4D"/>
    <path d="M14.6797 36.2798C14.6797 36.7474 14.8654 37.1959 15.1961 37.5266C15.5268 37.8572 15.9752 38.043 16.4428 38.043C16.9105 38.043 17.3589 37.8572 17.6896 37.5266C18.0202 37.1959 18.206 36.7474 18.206 36.2798V35.0503H14.6797V36.2798Z" fill="white"/>
    <path d="M35.5105 35.5223L8.66872 35.8713C7.09766 33.1727 9.40026 27.671 13.3003 25.417C15.3494 24.233 17.4412 24.1753 18.6178 24.245H25.8032C24.3033 26.5285 24.4597 29.4427 26.0941 31.314C27.4128 32.8238 29.5376 33.4777 31.4364 33.0595C35.9882 32.0571 35.7041 26.7935 34.9511 23.2378C34.8944 22.97 33.9293 19.8873 33.5254 18.7056L36.702 19.5941C37.2081 21.2864 37.7577 23.0193 38.3508 24.7926C38.9871 26.6893 39.6374 28.5197 40.3018 30.2836L35.5105 35.5223Z" fill="#FFE966"/>
    <path d="M45.2359 33.1479C45.7086 33.6434 46.0642 34.2387 46.2763 34.8898C46.4884 35.541 46.5517 36.2314 46.4615 36.9103C46.3713 37.5892 46.1299 38.2391 45.7551 38.8123C45.3803 39.3854 44.8816 39.8672 44.2959 40.222C43.7101 40.5768 43.0522 40.7957 42.3707 40.8624C41.6891 40.9292 41.0012 40.8421 40.3578 40.6077C39.7143 40.3732 39.1317 39.9974 38.6528 39.5078C38.1739 39.0183 37.811 38.4275 37.5908 37.779" fill="#4A4F60"/>
    <path d="M45.2366 33.1479L44.2926 33.7198C44.7302 34.3573 44.9992 35.0954 45.0743 35.865C45.1493 36.6346 45.0281 37.4107 44.7219 38.1208C44.4157 38.8309 43.9344 39.4517 43.3232 39.9254C42.7119 40.399 41.9906 40.71 41.2266 40.8293C42.1712 40.9755 43.1378 40.8223 43.9909 40.3911C44.8439 39.9598 45.5405 39.2723 45.9829 38.425C46.4252 37.5777 46.5911 36.6131 46.4573 35.6667C46.3235 34.7202 45.8966 33.8395 45.2366 33.148V33.1479Z" fill="#3B3F4D"/>
    <path d="M42.7712 34.7606C43.0433 34.9093 43.2714 35.1273 43.4325 35.3924C43.5935 35.6574 43.6818 35.9603 43.6884 36.2704C43.695 36.5805 43.6197 36.8869 43.47 37.1586C43.3204 37.4303 43.1018 37.6577 42.8362 37.8179C42.5706 37.9781 42.2674 38.0654 41.9573 38.0711C41.6472 38.0767 41.3411 38.0004 41.0698 37.8499C40.7986 37.6995 40.5719 37.4801 40.4125 37.214C40.2531 36.9479 40.1668 36.6445 40.1621 36.3343C40.1767 35.9834 40.2896 35.6437 40.4881 35.354C40.6865 35.0642 40.9624 34.8361 41.2843 34.6956C42.002 34.4009 42.6611 34.7072 42.7712 34.7606Z" fill="white"/>
    <path d="M8.66895 35.8715C9.7452 30.8872 14.3975 28.0755 18.1813 29.0449C20.9228 29.7473 23.0863 32.4035 23.5909 35.6792L8.66895 35.8715ZM38.3515 30.7158L38.6303 30.5499C39.2649 30.1723 39.9677 29.9234 40.6985 29.8173C41.4293 29.7113 42.1738 29.7503 42.8895 29.932C43.6053 30.1137 44.2782 30.4346 44.8699 30.8764C45.4616 31.3181 45.9606 31.8722 46.3382 32.5068L36.3948 38.4237C36.0171 37.7891 35.7682 37.0863 35.6622 36.3555C35.5562 35.6248 35.5951 34.8802 35.7768 34.1645C35.9585 33.4487 36.2794 32.7758 36.7212 32.1841C37.163 31.5924 37.7169 31.0935 38.3515 30.7158Z" fill="#FFE236"/>
    <path d="M24.0365 10.5396V18.7961C22.9608 18.7681 21.9086 18.4761 20.9724 17.9456C20.0362 17.4152 19.2449 16.6627 18.6681 15.7544C18.0912 14.846 17.7466 13.8098 17.6646 12.7369C17.5826 11.6641 17.7657 10.5875 18.1977 9.60205H23.099C23.2221 9.60201 23.344 9.62624 23.4578 9.67334C23.5715 9.72044 23.6749 9.78949 23.762 9.87656C23.849 9.96362 23.9181 10.067 23.9652 10.1807C24.0123 10.2945 24.0365 10.4164 24.0365 10.5396Z" fill="#FF4E4E"/>
    <path d="M24.208 17.3919C27.0557 17.3919 29.3643 15.0831 29.3643 12.235C29.3643 9.38695 27.0557 7.07812 24.208 7.07812C21.3603 7.07812 19.0518 9.38695 19.0518 12.235C19.0518 15.0831 21.3603 17.3919 24.208 17.3919Z" fill="#63EA86"/>
    <path d="M35.2231 15.4604H37.6948C37.7942 15.4604 37.8896 15.5 37.9599 15.5703C38.0303 15.6406 38.0698 15.736 38.0698 15.8354V19.2191C38.0698 19.3185 38.0303 19.4139 37.9599 19.4842C37.8896 19.5546 37.7942 19.5941 37.6948 19.5941H35.2231C34.6749 19.5941 34.1492 19.3763 33.7616 18.9887C33.374 18.6011 33.1563 18.0754 33.1562 17.5273C33.1562 16.9791 33.374 16.4534 33.7616 16.0658C34.1492 15.6782 34.6749 15.4604 35.2231 15.4604Z" fill="#FFE236"/>
    <path d="M37.6953 15.4604H36.2891C36.3885 15.4604 36.4839 15.5 36.5542 15.5703C36.6246 15.6406 36.6641 15.736 36.6641 15.8354V19.2191C36.6641 19.3185 36.6246 19.4139 36.5542 19.4842C36.4839 19.5546 36.3885 19.5941 36.2891 19.5941H37.6953C37.7948 19.5941 37.8902 19.5546 37.9605 19.4842C38.0308 19.4139 38.0703 19.3185 38.0703 19.2191V15.8355C38.0703 15.7361 38.0308 15.6407 37.9605 15.5704C37.8902 15.5001 37.7948 15.4605 37.6953 15.4605V15.4604Z" fill="#FFDF1F"/>
    <path d="M2.90344 17.2576H8.23781C8.42429 17.2576 8.60314 17.1836 8.735 17.0517C8.86686 16.9198 8.94094 16.741 8.94094 16.5545C8.94094 16.368 8.86686 16.1892 8.735 16.0573C8.60314 15.9255 8.42429 15.8514 8.23781 15.8514H2.90344C2.71696 15.8514 2.53811 15.9255 2.40625 16.0573C2.27439 16.1892 2.20031 16.368 2.20031 16.5545C2.20031 16.741 2.27439 16.9198 2.40625 17.0517C2.53811 17.1836 2.71696 17.2576 2.90344 17.2576ZM1.49719 20.0701H8.23781C8.42429 20.0701 8.60314 19.9961 8.735 19.8642C8.86686 19.7323 8.94094 19.5535 8.94094 19.367C8.94094 19.1805 8.86686 19.0017 8.735 18.8698C8.60314 18.738 8.42429 18.6639 8.23781 18.6639H1.49719C1.31071 18.6639 1.13186 18.738 1 18.8698C0.868142 19.0017 0.794063 19.1805 0.794062 19.367C0.794063 19.5535 0.868142 19.7323 1 19.8642C1.13186 19.9961 1.31071 20.0701 1.49719 20.0701ZM4.30969 14.4451H8.23781C8.42429 14.4451 8.60314 14.3711 8.735 14.2392C8.86686 14.1073 8.94094 13.9285 8.94094 13.742C8.94094 13.5555 8.86686 13.3767 8.735 13.2448C8.60314 13.113 8.42429 13.0389 8.23781 13.0389H4.30969C4.12321 13.0389 3.94436 13.113 3.8125 13.2448C3.68064 13.3767 3.60656 13.5555 3.60656 13.742C3.60656 13.9285 3.68064 14.1073 3.8125 14.2392C3.94436 14.3711 4.12321 14.4451 4.30969 14.4451ZM47.2969 40.2189H45.4713C46.3483 39.4283 46.9326 38.3645 47.1292 37.2002C47.3557 35.8575 47.0573 34.4791 46.2959 33.3502L46.6976 33.1111C46.8579 33.0158 46.9737 32.8607 47.0196 32.6799C47.0654 32.4992 47.0377 32.3076 46.9423 32.1474C46.2989 31.0679 45.3491 30.204 44.2136 29.6656C43.078 29.1272 41.8081 28.9386 40.5651 29.1237C39.966 27.6973 39.3494 25.6654 38.7521 23.696C38.4037 22.5471 38.0462 21.3685 37.6885 20.2973H38.0701C38.2566 20.2973 38.4354 20.2232 38.5673 20.0914C38.6991 19.9595 38.7732 19.7807 38.7732 19.5942V15.4605C38.7732 15.2741 38.6991 15.0952 38.5673 14.9634C38.4354 14.8315 38.2566 14.7574 38.0701 14.7574H35.2235C34.6115 14.7582 34.0169 14.9613 33.5323 15.3351C33.0477 15.7089 32.7003 16.2325 32.5442 16.8242H29.8538C29.6674 16.8242 29.4885 16.8983 29.3567 17.0302C29.2248 17.162 29.1507 17.3409 29.1507 17.5274C29.1507 17.7138 29.2248 17.8927 29.3567 18.0245C29.4885 18.1564 29.6674 18.2305 29.8538 18.2305H32.5442C32.6485 18.6262 32.8393 18.9939 33.1029 19.3069C33.1091 19.3482 33.1189 19.3889 33.1322 19.4284C33.524 20.5747 34.2135 23.1497 34.2631 23.3835C35.0322 27.0159 35.1398 31.524 31.2848 32.373C30.4427 32.5539 29.5677 32.5084 28.7489 32.2412C27.9301 31.9739 27.1967 31.4945 26.6234 30.8517C25.1729 29.1909 25.0766 26.6348 26.3886 24.6345C26.7506 24.4038 27.028 24.0618 27.1791 23.66C27.3302 23.2582 27.3469 22.8182 27.2265 22.4061C27.1062 21.9941 26.8554 21.6321 26.5119 21.3748C26.1683 21.1174 25.7505 20.9784 25.3212 20.9788H24.7209C24.7328 20.9011 24.7391 20.8227 24.7397 20.7442V18.07C25.7215 17.9813 26.6651 17.6463 27.483 17.096C28.301 16.5458 28.9669 15.798 29.4191 14.9221C29.8713 14.0461 30.0951 13.0701 30.0699 12.0847C30.0447 11.0992 29.7713 10.136 29.275 9.28421C28.7786 8.43247 28.0754 7.71973 27.2304 7.21198C26.3854 6.70423 25.4259 6.41788 24.4409 6.37945C23.4558 6.34103 22.477 6.55176 21.595 6.99214C20.713 7.43252 19.9564 8.08831 19.3952 8.8988H11.9878C11.5528 8.89929 11.1358 9.0723 10.8283 9.37987C10.5207 9.68744 10.3477 10.1045 10.3472 10.5394V20.7441C10.3477 21.1791 10.5207 21.5961 10.8283 21.9037C11.1358 22.2112 11.5528 22.3842 11.9878 22.3847H13.0828C12.972 22.7466 12.9674 23.1326 13.0696 23.497C13.1718 23.8614 13.3765 24.1888 13.6593 24.4402C13.417 24.5524 13.1797 24.6753 12.9483 24.8085C10.5389 26.2007 8.50041 28.9127 7.755 31.7175C7.29075 33.4641 7.39387 35.0508 8.04319 36.1922C8.04412 36.1942 8.04525 36.1961 8.04628 36.198C8.05134 36.207 8.05575 36.2163 8.06091 36.2251C8.06325 36.2293 8.06625 36.2327 8.06878 36.2368C8.07984 36.255 8.09175 36.2727 8.1045 36.2898C8.10825 36.2949 8.11162 36.3003 8.11556 36.3053C8.13219 36.3264 8.15 36.3464 8.16891 36.3655C8.17416 36.3708 8.17978 36.3758 8.18522 36.381C8.20047 36.3955 8.21641 36.4093 8.23303 36.4225C8.23866 36.427 8.24428 36.4316 8.25019 36.4359C8.27134 36.4517 8.29338 36.4663 8.31619 36.4797L8.31863 36.4813C8.34333 36.4953 8.36888 36.5079 8.39512 36.5189C8.40056 36.5211 8.40609 36.523 8.41153 36.5251C8.43178 36.5331 8.45253 36.5401 8.47378 36.5463L8.49806 36.5529C8.50556 36.5548 8.51278 36.5572 8.52047 36.5589C8.53359 36.5617 8.54681 36.5631 8.56003 36.5653C8.56753 36.5664 8.57475 36.5679 8.58225 36.5688C8.61116 36.5726 8.64028 36.5746 8.66944 36.5748C8.67122 36.5748 8.67281 36.5745 8.6745 36.5745H8.67769L11.1705 36.542C11.2052 37.2412 11.3789 37.9265 11.6815 38.5579C11.9841 39.1892 12.4095 39.7538 12.9328 40.2189H0.703125C0.516645 40.2189 0.337802 40.293 0.205941 40.4248C0.074079 40.5567 0 40.7355 0 40.922C0 41.1085 0.074079 41.2873 0.205941 41.4192C0.337802 41.5511 0.516645 41.6251 0.703125 41.6251H47.2969C47.4834 41.6251 47.6622 41.5511 47.7941 41.4192C47.9259 41.2873 48 41.1085 48 40.922C48 40.7355 47.9259 40.5567 47.7941 40.4248C47.6622 40.293 47.4834 40.2189 47.2969 40.2189ZM41.4975 30.4635C42.2321 30.4628 42.9575 30.6262 43.6208 30.9419C44.2841 31.2575 44.8685 31.7174 45.3312 32.2878L44.9942 32.4885C44.9137 32.5181 44.8393 32.5623 44.7748 32.6189L36.6823 37.4344C36.2304 36.3415 36.1867 35.1224 36.5591 33.9999C36.9316 32.8774 37.6953 31.9263 38.711 31.3202L38.9898 31.1543C39.748 30.7017 40.6146 30.463 41.4976 30.4634L41.4975 30.4635ZM42.9703 36.4874C42.9292 36.7273 42.8067 36.9457 42.6235 37.1059C42.4403 37.2662 42.2076 37.3585 41.9643 37.3674C41.7211 37.3762 41.4822 37.3011 41.2878 37.1546C41.0935 37.0081 40.9554 36.7992 40.8969 36.5629L42.6407 35.5253C42.7718 35.6452 42.8707 35.7962 42.9283 35.9643C42.9859 36.1324 43.0003 36.3122 42.9703 36.4874ZM33.8597 17.5274C33.8601 17.1658 34.0039 16.8192 34.2596 16.5635C34.5153 16.3079 34.8619 16.1641 35.2235 16.1637H37.3671V18.891H35.2235C34.8619 18.8906 34.5153 18.7468 34.2597 18.4912C34.004 18.2355 33.8601 17.8889 33.8597 17.5274ZM25.3212 22.385C25.4746 22.3841 25.6221 22.4441 25.7313 22.5519C25.8404 22.6597 25.9023 22.8064 25.9033 22.9598C25.9042 23.1133 25.8442 23.2608 25.7364 23.3699C25.6286 23.4791 25.4818 23.5409 25.3284 23.5419H18.6382C18.2013 23.517 17.7634 23.5171 17.3266 23.5424H14.9813C14.9046 23.5433 14.8286 23.5291 14.7575 23.5004C14.6865 23.4718 14.6218 23.4293 14.5673 23.3755C14.5128 23.3217 14.4695 23.2575 14.4399 23.1869C14.4104 23.1162 14.3952 23.0403 14.3952 22.9637C14.3952 22.8871 14.4104 22.8112 14.4399 22.7405C14.4695 22.6698 14.5128 22.6057 14.5673 22.5519C14.6218 22.498 14.6865 22.4556 14.7575 22.4269C14.8286 22.3983 14.9046 22.384 14.9813 22.385H25.3212ZM24.2083 7.78139C25.0892 7.78126 25.9504 8.04236 26.6829 8.53167C27.4154 9.02098 27.9863 9.71652 28.3235 10.5303C28.6607 11.3441 28.749 12.2397 28.5773 13.1037C28.4055 13.9676 27.9813 14.7613 27.3585 15.3842C26.7357 16.0072 25.9421 16.4314 25.0781 16.6033C24.2141 16.7752 23.3186 16.6871 22.5047 16.35C21.6909 16.0129 20.9952 15.4421 20.5058 14.7096C20.0164 13.9772 19.7552 13.1161 19.7552 12.2352C19.7564 11.0545 20.226 9.92246 21.0608 9.08751C21.8956 8.25255 23.0276 7.78283 24.2083 7.78139ZM11.9878 20.9786C11.9257 20.9785 11.8661 20.9538 11.8222 20.9098C11.7782 20.8659 11.7535 20.8063 11.7534 20.7442V10.5395C11.7535 10.4774 11.7782 10.4178 11.8222 10.3739C11.8661 10.3299 11.9257 10.3052 11.9878 10.3051H18.6769C18.3927 11.1182 18.2913 11.984 18.3799 12.8407C18.4686 13.6974 18.7451 14.5241 19.1898 15.2617C19.6345 15.9994 20.2364 16.6299 20.9526 17.1083C21.6688 17.5867 22.4817 17.9013 23.3334 18.0296V20.7442C23.3334 20.8063 23.3086 20.8659 23.2647 20.9098C23.2208 20.9538 23.1612 20.9785 23.0991 20.9786H11.9878ZM9.114 32.0788C9.76838 29.6167 11.5496 27.2408 13.6519 26.0259C14.7895 25.3837 16.0609 25.0149 17.3656 24.9486H24.6281C23.6289 27.268 23.9583 29.9378 25.5643 31.7767C26.3046 32.608 27.252 33.2283 28.3101 33.5743C29.3681 33.9202 30.4989 33.9796 31.5874 33.7463C35.4736 32.8904 36.9124 29.1068 35.6388 23.0924C35.591 22.8661 35.2237 21.4846 34.8678 20.2737C34.9857 20.2892 35.1045 20.297 35.2235 20.2973H36.2037C36.6045 21.4598 37.0114 22.8014 37.4064 24.1041C37.9903 26.0297 38.5926 28.014 39.1959 29.4929C38.8758 29.6187 38.5664 29.7702 38.2706 29.9458L37.9919 30.1117C37.2765 30.5348 36.6521 31.0955 36.1549 31.7615C35.6577 32.4275 35.2975 33.1855 35.0952 33.9916C35.0259 34.2662 34.9749 34.5451 34.9424 34.8265L24.1727 34.9665C23.4624 31.7031 21.1838 29.0886 18.3557 28.3638C16.4296 27.8704 14.2414 28.2573 12.3519 29.4253C10.8894 30.3404 9.69966 31.6316 8.90709 33.164C8.94887 32.7976 9.01803 32.4348 9.114 32.0788ZM9.58997 35.1562C10.2074 33.2582 11.4509 31.6354 13.0913 30.6213C14.6574 29.6534 16.449 29.327 18.0067 29.7262C20.246 30.3 22.0732 32.3653 22.7333 34.9853L9.58997 35.1562ZM17.4868 36.4598C17.445 36.7038 17.3191 36.9254 17.1309 37.0862C16.9427 37.247 16.7042 37.3368 16.4567 37.3401C16.2091 37.3433 15.9683 37.2597 15.776 37.1039C15.5837 36.9481 15.452 36.7298 15.4039 36.487L17.4868 36.4598ZM16.4433 40.1533C15.4587 40.152 14.5114 39.7763 13.7937 39.1022C13.0759 38.4282 12.6415 37.5063 12.5785 36.5237L13.9878 36.5055C14.0444 37.1234 14.332 37.6972 14.793 38.1125C15.2541 38.5278 15.8548 38.754 16.4753 38.7459C17.0957 38.7378 17.6904 38.4961 18.1405 38.069C18.5906 37.6419 18.8631 37.0607 18.9037 36.4415L20.3129 36.4231C20.2749 37.4244 19.8507 38.3721 19.1293 39.0675C18.4079 39.7629 17.4453 40.152 16.4433 40.1533ZM19.9537 40.2189C20.4941 39.7384 20.9298 39.1518 21.2336 38.4957C21.5374 37.8395 21.7029 37.1278 21.7196 36.4049L23.5483 36.3811C23.5802 36.3829 23.6123 36.3824 23.6441 36.3798L34.9358 36.233C35.0339 37.1347 35.3254 38.0047 35.7904 38.7835C35.8857 38.9437 36.0408 39.0595 36.2216 39.1054C36.4023 39.1513 36.5939 39.1235 36.7541 39.0282L37.2394 38.7394C37.5281 39.2963 37.9139 39.7973 38.3784 40.2189H19.9537ZM44.1623 39.4705C43.7048 39.794 43.1827 40.0144 42.6318 40.1166C42.081 40.2187 41.5145 40.2001 40.9715 40.0621C40.4286 39.9241 39.922 39.6699 39.4868 39.3171C39.0515 38.9643 38.698 38.5213 38.4506 38.0187L39.6668 37.2949C39.8067 37.6156 40.0131 37.9028 40.2725 38.1375C40.5319 38.3722 40.8383 38.549 41.1712 38.6562C41.5042 38.7633 41.8562 38.7984 42.2038 38.7591C42.5514 38.7197 42.8866 38.6069 43.1872 38.428C43.4878 38.2491 43.7469 38.0083 43.9473 37.7216C44.1477 37.4349 44.2847 37.1088 44.3494 36.765C44.414 36.4212 44.4047 36.0676 44.3222 35.7277C44.2396 35.3878 44.0857 35.0693 43.8706 34.7935L45.086 34.0703C45.3801 34.4855 45.5896 34.9545 45.7023 35.4507C45.8151 35.9468 45.829 36.4603 45.7432 36.9618C45.6574 37.4633 45.4737 37.943 45.2024 38.3735C44.9311 38.8039 44.5777 39.1767 44.1623 39.4705ZM24.2083 12.9383H26.2358C26.4223 12.9383 26.6012 12.8642 26.733 12.7324C26.8649 12.6005 26.939 12.4217 26.939 12.2352C26.939 12.0487 26.8649 11.8698 26.733 11.738C26.6012 11.6061 26.4223 11.532 26.2358 11.532H24.9114V9.57689C24.9114 9.39041 24.8374 9.21157 24.7055 9.0797C24.5736 8.94784 24.3948 8.87376 24.2083 8.87376C24.0218 8.87376 23.843 8.94784 23.7111 9.0797C23.5793 9.21157 23.5052 9.39041 23.5052 9.57689V12.2353C23.5052 12.4217 23.5793 12.6006 23.7111 12.7324C23.843 12.8643 24.0218 12.9383 24.2083 12.9383Z" fill="#272A33"/>
  </g>
  <defs>
    <clipPath id="clip0_1506_1970">
      <rect width="48" height="48" fill="white"/>
    </clipPath>
  </defs>
</svg>