<svg xmlns="http://www.w3.org/2000/svg" width="48" height="48" viewBox="0 0 48 48" fill="none">
  <g filter="url(#filter0_b_1592_2437)">
    <circle cx="24" cy="24" r="24" fill="url(#paint0_linear_1592_2437)"/>
  </g>
  <path d="M29.4236 16.8H18.0956C17.7116 16.8 17.3756 17.136 17.3756 17.52V27.744C17.3756 28.128 17.7116 28.464 18.0956 28.464H19.8236C20.1596 29.616 21.1676 30.432 22.4156 30.432C23.6636 30.432 24.6716 29.616 25.0076 28.464H29.4236C29.8076 28.464 30.1436 28.128 30.1436 27.744V17.52C30.1436 17.136 29.8076 16.8 29.4236 16.8ZM22.4156 28.992C21.7436 28.992 21.1676 28.416 21.1676 27.744C21.1676 27.072 21.7436 26.496 22.4156 26.496C23.0876 26.496 23.6636 27.072 23.6636 27.744C23.6636 28.416 23.0876 28.992 22.4156 28.992ZM28.7036 27.024H24.9596C24.6236 25.872 23.6156 25.056 22.3676 25.056C21.1196 25.056 20.1116 25.872 19.7756 27.024H18.7676V18.24H28.6556V27.024H28.7036ZM12.9116 19.584H10.3196C9.93561 19.584 9.59961 19.248 9.59961 18.864C9.59961 18.48 9.93561 18.144 10.3196 18.144H12.9116C13.2956 18.144 13.6316 18.48 13.6316 18.864C13.6316 19.248 13.3436 19.584 12.9116 19.584ZM14.4956 22.608H11.9036C11.5196 22.608 11.1836 22.272 11.1836 21.888C11.1836 21.504 11.5196 21.168 11.9036 21.168H14.4956C14.8796 21.168 15.2156 21.504 15.2156 21.888C15.2156 22.272 14.8796 22.608 14.4956 22.608ZM16.7516 24.912C16.7516 25.296 16.4156 25.632 16.0316 25.632H13.4396C13.0556 25.632 12.7196 25.296 12.7196 24.912C12.7196 24.528 13.0556 24.192 13.4396 24.192H16.0316C16.4156 24.192 16.7516 24.528 16.7516 24.912ZM38.3036 23.712L35.3276 19.104C35.1836 18.912 34.9436 18.768 34.7036 18.768H31.1036V20.208H34.3196L36.9596 24.336V27.072H36.3836C36.0476 25.92 35.0396 25.104 33.7916 25.104C32.3036 25.104 31.1036 26.304 31.1036 27.792C31.1036 29.28 32.3036 30.48 33.7916 30.48C35.0396 30.48 36.0476 29.664 36.3836 28.512H37.6796C38.0636 28.512 38.3996 28.176 38.3996 27.792V24.096C38.3996 23.952 38.3516 23.808 38.3036 23.712ZM33.7916 28.992C33.1196 28.992 32.5436 28.416 32.5436 27.744C32.5436 27.072 33.1196 26.496 33.7916 26.496C34.4636 26.496 35.0396 27.072 35.0396 27.744C35.0396 28.416 34.4636 28.992 33.7916 28.992Z" fill="#414141"/>
  <defs>
    <filter id="filter0_b_1592_2437" x="-7" y="-7" width="62" height="62" filterUnits="userSpaceOnUse" color-interpolation-filters="sRGB">
      <feFlood flood-opacity="0" result="BackgroundImageFix"/>
      <feGaussianBlur in="BackgroundImageFix" stdDeviation="3.5"/>
      <feComposite in2="SourceAlpha" operator="in" result="effect1_backgroundBlur_1592_2437"/>
      <feBlend mode="normal" in="SourceGraphic" in2="effect1_backgroundBlur_1592_2437" result="shape"/>
    </filter>
    <linearGradient id="paint0_linear_1592_2437" x1="48" y1="1.70827e-05" x2="-3.994" y2="2.76986" gradientUnits="userSpaceOnUse">
      <stop stop-color="#F2F2F2"/>
      <stop offset="1" stop-color="#FDFDFD" stop-opacity="0.87"/>
    </linearGradient>
  </defs>
</svg>