<svg xmlns="http://www.w3.org/2000/svg" width="49" height="49" viewBox="0 0 49 49" fill="none">
  <g clip-path="url(#clip0_13218_23676)">
    <path d="M47.5558 20.0336H45.6227V19.934H24.023V29.5339H37.5864C35.6076 35.1222 30.2905 39.1337 24.023 39.1337C16.0708 39.1337 9.62327 32.6862 9.62327 24.734C9.62327 16.7817 16.0708 10.3342 24.023 10.3342C27.6938 10.3342 31.0333 11.719 33.5761 13.9809L40.3643 7.19266C36.078 3.19793 30.3445 0.734375 24.023 0.734375C10.7693 0.734375 0.0234375 11.4802 0.0234375 24.734C0.0234375 37.9877 10.7693 48.7335 24.023 48.7335C37.2768 48.7335 48.0226 37.9877 48.0226 24.734C48.0226 23.1248 47.857 21.554 47.5558 20.0336Z" fill="#FFC107"/>
    <path d="M2.78906 13.5634L10.6741 19.3461C12.8077 14.0637 17.9748 10.3342 24.0215 10.3342C27.6922 10.3342 31.0318 11.719 33.5745 13.9809L40.3628 7.19266C36.0765 3.19793 30.343 0.734375 24.0215 0.734375C14.8033 0.734375 6.80899 5.93868 2.78906 13.5634Z" fill="#FD4D15"/>
    <path d="M24.0219 48.7325C30.221 48.7325 35.8537 46.3602 40.1124 42.5022L32.6845 36.2167C30.194 38.1108 27.1508 39.1352 24.0219 39.1327C17.7796 39.1327 12.4793 35.1524 10.4825 29.5977L2.65625 35.6276C6.62818 43.3998 14.6944 48.7325 24.0219 48.7325Z" fill="#4CAF50"/>
    <path d="M47.5562 20.0332H45.6231V19.9336H24.0234V29.5334H37.5868C36.6403 32.1931 34.9353 34.5172 32.6825 36.2185L32.6861 36.2161L40.114 42.5016C39.5884 42.9792 48.023 36.7333 48.023 24.7335C48.023 23.1243 47.8574 21.5536 47.5562 20.0332Z" fill="#1976D2"/>
  </g>
  <defs>
    <clipPath id="clip0_13218_23676">
      <rect x="0.0234375" y="0.734375" width="48" height="48" rx="24" fill="white"/>
    </clipPath>
  </defs>
</svg>