<svg width="486" height="400" viewBox="0 0 486 400" fill="none" xmlns="http://www.w3.org/2000/svg">
<path fill-rule="evenodd" clip-rule="evenodd" d="M332.67 32.9157C376.183 38.3979 399.556 83.6328 425.536 119.01C446.184 147.127 459.196 177.453 464.18 211.994C470.346 254.727 484.578 303.272 456.899 336.38C428.316 370.57 376.976 373.77 332.67 369.3C292.769 365.274 260.932 340.535 231.185 313.606C199.16 284.614 162.432 255.078 158.905 211.994C155.189 166.592 181.365 124.914 213.068 92.2409C245.297 59.0258 286.78 27.1339 332.67 32.9157Z" fill="#FFDCDC"/>
<path d="M306.916 291.198L329.405 356.026C329.57 356.501 329.878 356.913 330.288 357.204C330.697 357.495 331.187 357.652 331.689 357.652H338.07L313.901 287.985H309.2C308.814 287.985 308.434 288.077 308.092 288.254C307.749 288.431 307.453 288.687 307.23 289.002C307.006 289.316 306.861 289.68 306.807 290.062C306.752 290.444 306.789 290.833 306.916 291.198Z" fill="black"/>
<path d="M332.849 258.087H326.468C323.425 258.087 320.958 260.556 320.958 263.602C320.958 266.648 323.425 269.118 326.468 269.118H332.849C335.892 269.118 338.36 266.648 338.36 263.602C338.36 260.556 335.892 258.087 332.849 258.087Z" fill="black"/>
<path d="M38.9258 265.245H106.764V272.99H38.9258V265.245Z" fill="#133852"/>
<path d="M359.347 177.774H427.185V185.519H359.347V177.774Z" fill="#674CFB"/>
<path d="M117.171 51.3123H185.009V59.0579H117.171V51.3123Z" fill="#FD6F41"/>
<path d="M294.96 11.1079C293.862 11.1079 292.79 10.7822 291.877 10.1719C290.964 9.56161 290.253 8.69421 289.833 7.67936C289.413 6.6645 289.303 5.54779 289.517 4.47043C289.731 3.39307 290.26 2.40346 291.036 1.62672C291.812 0.849988 292.801 0.32102 293.877 0.106719C294.954 -0.107581 296.069 0.00240931 297.083 0.422775C298.097 0.84314 298.964 1.555 299.574 2.46835C300.184 3.38169 300.509 4.45549 300.509 5.55396C300.507 7.02646 299.922 8.43821 298.882 9.47943C297.842 10.5206 296.431 11.1063 294.96 11.1079ZM294.96 1.20949C294.101 1.20949 293.262 1.46429 292.548 1.94166C291.835 2.41904 291.278 3.09755 290.95 3.8914C290.621 4.68524 290.535 5.55877 290.703 6.40151C290.87 7.24426 291.283 8.01837 291.891 8.62595C292.498 9.23354 293.271 9.64731 294.113 9.81494C294.955 9.98258 295.828 9.89654 296.621 9.56772C297.414 9.2389 298.092 8.68205 298.569 7.96761C299.046 7.25317 299.301 6.41321 299.301 5.55396C299.299 4.40222 298.841 3.29812 298.027 2.48372C297.214 1.66932 296.111 1.21109 294.96 1.20949ZM144.233 165.061C143.136 165.06 142.063 164.735 141.151 164.124C140.239 163.514 139.528 162.646 139.108 161.632C138.688 160.617 138.578 159.5 138.792 158.423C139.006 157.346 139.535 156.356 140.311 155.58C141.087 154.803 142.076 154.274 143.152 154.06C144.228 153.845 145.344 153.955 146.358 154.375C147.372 154.796 148.238 155.507 148.848 156.42C149.458 157.334 149.784 158.407 149.784 159.506C149.782 160.978 149.197 162.39 148.156 163.432C147.116 164.473 145.705 165.059 144.233 165.061ZM144.233 155.162C143.375 155.163 142.536 155.418 141.822 155.895C141.108 156.373 140.552 157.051 140.224 157.845C139.896 158.639 139.81 159.513 139.978 160.356C140.145 161.198 140.559 161.972 141.166 162.58C141.773 163.187 142.547 163.601 143.389 163.768C144.231 163.935 145.104 163.849 145.897 163.52C146.69 163.191 147.368 162.634 147.845 161.919C148.321 161.205 148.576 160.365 148.575 159.506C148.574 158.354 148.116 157.25 147.302 156.435C146.488 155.621 145.384 155.163 144.233 155.162Z" fill="black"/>
<path d="M397.689 144.976L388.843 142.557L395.272 134.913L397.689 144.976Z" fill="#FD6F41"/>
<path d="M8.84579 247.873L0 245.454L6.4289 237.81L8.84579 247.873ZM264.662 25.8164L255.816 23.3975L262.245 15.7535L264.662 25.8164Z" fill="#FED44A"/>
<path d="M147.055 29.209L138.209 26.7901L144.638 19.1461L147.055 29.209Z" fill="#674CFB"/>
<path d="M193.323 363.178L184.478 360.759L190.906 353.115L193.323 363.178Z" fill="#2CA68F"/>
<path d="M257.773 370.614L253.793 383.471C253.793 383.471 231.773 385.766 226.268 400H271.56C272.189 400 272.798 399.777 273.278 399.37C273.759 398.963 274.079 398.398 274.182 397.777L278.705 370.614H257.773ZM369.449 361.446L370.21 377.733C370.21 377.733 350.38 384.738 350.193 400L394.359 390.889C395.576 390.435 394.558 385.281 394.309 384.005L389.06 354.124L369.449 361.446Z" fill="#FD8B66"/>
<path d="M288.64 177.997L252.486 373.077C252.486 373.077 275.028 369.671 288.64 379.462C302.252 389.254 323.945 371.083 332.366 372.051C338.735 372.783 356.102 375.297 365.885 371.581C375.668 367.866 382.048 362.758 396.934 370.421C396.934 370.421 405.442 372.976 412.247 366.59C412.247 366.59 381.365 304.112 367.754 261.542C354.143 218.971 347.87 191.938 326.549 177.997H288.64Z" fill="#E6560F"/>
<path d="M485.999 261.968L481.956 255.819L485.337 249.776L422.766 223.318L385.089 292.617L485.999 261.968Z" fill="#E8A452"/>
<path d="M292.469 72.7407C292.469 72.7407 293.532 60.2885 299.806 57.9467C306.08 55.6049 306.718 58.1593 310.652 57.9467C313.194 57.7364 315.642 56.8954 317.777 55.4996C317.777 55.4996 320.542 61.14 319.691 64.8648C318.84 68.5896 320.968 78.1685 323.094 77.4233C325.22 76.6782 323.094 70.08 327.134 72.2082C331.174 74.3363 330.005 81.3608 325.114 81.9996C325.114 81.9996 322.882 94.0256 325.008 99.347C325.008 99.347 335.217 106.159 335.854 113.182C336.491 120.206 336.917 128.295 339.257 129.786C341.597 131.276 356.908 129.572 356.271 118.716C355.634 107.861 348.189 102.327 349.465 91.6848C350.741 81.0429 335.854 67.2066 334.365 61.4589C332.876 55.7112 322.456 42.5148 315.651 43.1537C308.846 43.7926 297.574 39.5352 292.469 47.1974C287.365 54.8597 286.089 63.8007 292.469 72.7407Z" fill="#5E1212"/>
<path d="M325.115 81.9996C330.007 81.3608 331.176 74.3363 327.136 72.2082C323.094 70.08 325.221 76.6781 323.094 77.4233C320.968 78.1685 318.841 68.5896 319.692 64.8648C320.543 61.14 317.778 55.4986 317.778 55.4986C315.643 56.8947 313.195 57.7362 310.653 57.9467C306.719 58.1593 306.081 55.6059 299.807 57.9467C293.533 60.2885 292.47 72.7407 292.47 72.7407C292.47 72.7407 289.918 93.1741 302.466 95.5159C302.466 95.5159 303.741 106.584 300.552 110.841C300.552 110.841 290.848 124.068 324.955 99.1984C322.924 93.8068 325.115 81.9996 325.115 81.9996Z" fill="#FD8B66"/>
<path d="M305.974 64.8111C306.318 64.7976 306.643 64.6515 306.881 64.4035C307.119 64.1555 307.252 63.8248 307.252 63.4808C307.252 63.1368 307.119 62.8061 306.881 62.5581C306.643 62.31 306.318 62.164 305.974 62.1504C305.631 62.164 305.306 62.31 305.068 62.5581C304.829 62.8061 304.696 63.1368 304.696 63.4808C304.696 63.8248 304.829 64.1555 305.068 64.4035C305.306 64.6515 305.631 64.7976 305.974 64.8111ZM326.39 84.6635C329.811 84.6635 329.818 79.342 326.39 79.342C322.969 79.342 322.963 84.6635 326.39 84.6635Z" fill="#D04719"/>
<path d="M312.036 73.8626C312.446 73.8626 312.839 73.6995 313.13 73.4092C313.42 73.1189 313.583 72.7251 313.583 72.3145C313.583 71.9039 313.42 71.5101 313.13 71.2198C312.839 70.9295 312.446 70.7664 312.036 70.7664C311.625 70.7664 311.232 70.9295 310.942 71.2198C310.652 71.5101 310.489 71.9039 310.489 72.3145C310.489 72.7251 310.652 73.1189 310.942 73.4092C311.232 73.6995 311.625 73.8626 312.036 73.8626ZM298.318 72.6923C298.728 72.6923 299.121 72.5292 299.411 72.2388C299.701 71.9485 299.864 71.5547 299.864 71.1441C299.864 70.7335 299.701 70.3397 299.411 70.0494C299.121 69.7591 298.728 69.596 298.318 69.596C297.907 69.596 297.514 69.7591 297.224 70.0494C296.934 70.3397 296.771 70.7335 296.771 71.1441C296.771 71.5547 296.934 71.9485 297.224 72.2388C297.514 72.5292 297.907 72.6923 298.318 72.6923ZM301.614 64.5129C301.38 64.5131 301.153 64.4334 300.971 64.2869C298.826 62.5695 295.441 63.8916 295.407 63.906C295.154 64.002 294.875 63.9953 294.627 63.8872C294.38 63.7791 294.185 63.5784 294.084 63.328C293.983 63.0776 293.984 62.7975 294.087 62.5478C294.19 62.2982 294.386 62.0988 294.634 61.9926C294.818 61.9182 299.164 60.1998 302.259 62.6737C302.426 62.8072 302.548 62.9895 302.607 63.1953C302.666 63.4011 302.66 63.6203 302.589 63.8224C302.518 64.0245 302.387 64.1996 302.212 64.3233C302.037 64.447 301.828 64.5133 301.614 64.5129ZM316.931 66.4574C316.697 66.4574 316.471 66.3777 316.288 66.2314C314.127 64.4995 310.761 65.835 310.726 65.8495C310.6 65.9014 310.466 65.9279 310.33 65.9274C310.194 65.927 310.059 65.8996 309.934 65.8469C309.808 65.7942 309.695 65.7172 309.599 65.6203C309.503 65.5234 309.428 65.4086 309.377 65.2824C309.326 65.1562 309.3 65.0212 309.302 64.885C309.303 64.7489 309.331 64.6144 309.385 64.4893C309.438 64.3641 309.516 64.2508 309.614 64.1559C309.711 64.0609 309.826 63.9862 309.953 63.936C310.135 63.8637 314.482 62.1412 317.576 64.6192C317.743 64.7529 317.864 64.9351 317.923 65.1405C317.981 65.346 317.975 65.5646 317.904 65.7662C317.833 65.9678 317.702 66.1425 317.528 66.2661C317.354 66.3897 317.145 66.4562 316.932 66.4564L316.931 66.4574Z" fill="#5E1212"/>
<path d="M304.059 67.7382C303.919 69.0229 303.668 70.293 303.308 71.5342C302.966 72.7396 302.579 73.9318 302.148 75.1083L301.52 76.8309L301.246 77.6462L301.159 77.9745C301.148 77.9972 301.146 78.0467 301.126 77.9879C301.079 77.8867 301.071 77.895 301.064 77.8981C301.014 77.9208 301.18 78.0839 301.404 78.1902C301.658 78.3138 301.924 78.4093 302.198 78.475C302.781 78.6505 303.409 78.7588 304.059 78.9126C303.452 79.2037 302.803 79.3974 302.136 79.4865C301.779 79.5316 301.417 79.5358 301.059 79.4988C300.569 79.4609 300.112 79.2416 299.776 78.8837C299.643 78.7407 299.547 78.5675 299.496 78.379C299.457 78.2296 299.434 78.0763 299.429 77.9218C299.426 77.7174 299.436 77.5129 299.459 77.3098C299.501 76.9646 299.562 76.6221 299.642 76.2839C299.796 75.6481 299.986 75.0214 300.209 74.4065C300.649 73.2011 301.186 72.0334 301.815 70.9149C302.44 69.7743 303.193 68.7085 304.059 67.7382ZM305.973 83.7026C306.479 83.3599 306.851 83.0905 307.196 82.8191C307.539 82.557 307.836 82.3103 308.142 82.0605L309.094 81.2441C309.486 80.8998 309.902 80.5833 310.339 80.2967C310.491 80.8593 310.465 81.4555 310.264 82.0027C310.064 82.5533 309.724 83.0424 309.278 83.4218C308.817 83.805 308.257 84.05 307.663 84.1288C307.367 84.1749 307.065 84.1609 306.775 84.0876C306.484 84.0144 306.212 83.8834 305.973 83.7026ZM302.464 95.5149C302.464 95.5149 309.907 96.6863 315.224 92.7489C315.224 92.7489 310.826 99.6639 302.711 101.049C302.866 99.2017 302.783 97.341 302.464 95.5149Z" fill="#D04719"/>
<path d="M339.256 129.785C336.917 128.295 336.492 120.207 335.854 113.182C335.215 106.158 325.008 99.347 325.008 99.347C324.989 99.2995 324.972 99.2468 324.954 99.1983C301.016 116.653 298.658 115.34 299.381 113.008C299.381 113.008 289.386 127.55 285.398 133.776C281.41 140.001 278.46 148.303 288.149 159.798V170.333H327.985V166.342L347.443 160.117L340.194 130.106C339.865 130.056 339.547 129.947 339.256 129.785Z" fill="#E6560F"/>
<path d="M289.492 170.333L288.641 177.997H326.55V170.333H289.492ZM344.169 161.165C344.169 161.165 353.931 174.272 356.059 183.424C358.186 192.577 371.157 223.866 371.157 223.866C371.157 223.866 383.333 230.358 383.333 233.551V235.467C383.333 235.467 384.369 245.125 383.333 245.285C383.333 245.285 379.746 247.043 369.137 239.697C366.773 237.109 364.907 234.105 363.634 230.838C362.04 226.128 338.513 184.861 338.513 184.861L327.985 166.342L344.169 161.165Z" fill="#FD8B66"/>
<path d="M347.443 174.166C348.083 174.226 348.699 174.437 349.242 174.782C349.753 175.098 350.205 175.501 350.578 175.972C350.971 176.456 351.261 177.015 351.43 177.616C351.539 177.939 351.581 178.281 351.553 178.621C351.526 178.961 351.431 179.292 351.272 179.593C350.793 179.082 350.392 178.772 350.01 178.4C349.636 178.041 349.286 177.658 348.962 177.254C348.627 176.829 348.33 176.376 348.074 175.899C347.78 175.356 347.568 174.771 347.444 174.166H347.443ZM378.947 240.576C379.808 240.459 380.684 240.534 381.512 240.798C382.351 241.026 383.128 241.44 383.786 242.009C382.925 242.129 382.047 242.053 381.219 241.787C380.381 241.557 379.606 241.143 378.947 240.576ZM379.823 236.585C380.494 236.433 381.194 236.472 381.844 236.697C382.504 236.894 383.094 237.273 383.548 237.791C382.877 237.945 382.176 237.905 381.527 237.678C380.868 237.479 380.278 237.1 379.823 236.583V236.585ZM379.823 232.993C380.461 232.841 381.128 232.88 381.744 233.103C382.369 233.301 382.922 233.679 383.332 234.19C382.695 234.344 382.027 234.306 381.411 234.08C380.787 233.88 380.235 233.503 379.823 232.993Z" fill="#D04719"/>
<path d="M485.999 261.968L439.212 338.169L385.089 292.617L424.551 232.993L485.999 261.968Z" fill="#FFB957"/>
<path d="M440.541 276.765L433.59 288.086L425.549 281.319L431.412 272.46L440.541 276.765ZM396.154 275.898C394.155 273.462 392.328 270.92 390.563 268.341C388.786 265.768 387.113 263.131 385.459 260.483C383.839 257.814 382.239 255.131 380.743 252.386C379.235 249.647 377.79 246.869 376.519 243.985C378.52 246.419 380.348 248.96 382.113 251.541C383.889 254.115 385.563 256.751 387.214 259.401C388.833 262.071 390.431 264.753 391.928 267.5C393.435 270.239 394.882 273.015 396.154 275.898ZM383.333 233.551C385.814 233.976 388.27 234.536 390.691 235.227C393.11 235.883 395.49 236.652 397.863 237.444C400.223 238.273 402.575 239.127 404.887 240.093C407.223 241.032 409.506 242.1 411.724 243.29C409.243 242.868 406.786 242.309 404.366 241.617C401.946 240.961 399.566 240.191 397.195 239.396C394.835 238.565 392.484 237.712 390.171 236.745C387.836 235.805 385.553 234.739 383.333 233.551ZM397.05 270.428C395.222 268.548 393.493 266.574 391.871 264.513C390.228 262.482 388.684 260.38 387.158 258.266C385.665 256.129 384.191 253.976 382.817 251.754C381.407 249.542 380.115 247.257 378.947 244.908C380.777 246.787 382.507 248.761 384.129 250.822C385.771 252.853 387.316 254.955 388.839 257.072C390.331 259.21 391.804 261.362 393.178 263.584C394.587 265.796 395.88 268.081 397.05 270.428ZM380.649 230.007C384.06 230.358 387.426 230.907 390.776 231.525C394.129 232.131 397.456 232.856 400.776 233.602C404.087 234.386 407.393 235.195 410.672 236.122C413.955 237.036 417.221 238.021 420.439 239.206C417.027 238.858 413.66 238.31 410.311 237.691C406.958 237.085 403.631 236.361 400.312 235.612C397.001 234.826 393.695 234.016 390.416 233.089C387.134 232.174 383.867 231.19 380.648 230.008L380.649 230.007ZM279.824 225.571C288.734 210.23 296.666 194.34 303.572 177.997H288.64L279.824 225.571Z" fill="#376F92"/>
<path d="M289.492 170.333L288.641 177.997H303.571C304.619 175.459 305.624 172.904 306.588 170.333H289.492Z" fill="#376F92"/>
<path d="M285.398 133.776C281.411 140.002 278.459 148.303 288.15 159.798V170.333H306.588C309.311 164.81 311.187 158.908 312.152 152.825C313.734 142.68 311.851 137.343 312.527 125.002C312.882 118.611 313.808 112.265 315.293 106.039C300.359 116.22 298.771 114.979 299.381 113.008C299.381 113.008 289.386 127.55 285.398 133.776Z" fill="#376F92"/>
<path d="M315.224 115.418C313.841 117.188 313.096 119.374 313.111 121.621C313.045 123.851 313.204 126.082 313.586 128.281C314.359 132.715 315.426 137.093 316.78 141.385C318.09 145.706 319.551 149.992 321.084 154.258C322.596 158.531 324.181 162.79 325.781 167.051L325.525 166.941L327.984 166.342L325.659 167.34L325.5 167.408L325.402 167.231C321.015 159.199 317.469 150.735 314.822 141.974C313.454 137.575 312.522 133.052 312.037 128.471C311.789 126.157 311.826 123.821 312.147 121.516C312.381 119.171 313.477 116.998 315.224 115.418Z" fill="#AF2500"/>
<path d="M356.29 120.526C342.805 93.0678 325.009 99.347 325.009 99.347C329.809 105.187 335.627 110.318 337.973 117.506C339.749 122.947 339.231 131.146 342.12 140.813C345.189 151.081 347.801 150.715 355.394 166.064C365.25 185.988 371.179 198.647 372.009 207.37C372.647 214.076 374.561 215.671 378.947 213.756C383.334 211.84 389.554 218.226 394.34 211.84C398.72 205.994 403.633 209.244 404.432 209.836C386.258 196.324 369.748 147.926 356.29 120.526ZM404.432 209.836C404.47 209.865 404.509 209.897 404.547 209.924C404.547 209.924 404.506 209.89 404.432 209.836Z" fill="#376F92"/>
<mask id="mask0_1490_4265" style="mask-type:luminance" maskUnits="userSpaceOnUse" x="16" y="54" width="278" height="212">
<path d="M16.8584 54.5487H293.274V265.407H16.8584V54.5487Z" fill="white"/>
</mask>
<g mask="url(#mask0_1490_4265)">
<path d="M99.508 165.847C116.224 193.435 104.491 210.166 103.907 210.749C103.608 211.048 103.024 211.633 102.725 211.633C94.6264 215.019 85.9829 216.911 77.2114 217.219V242.171C78.6778 245.391 87.477 261.836 98.9244 266.823C99.6203 267.14 100.164 267.718 100.438 268.432C100.713 269.147 100.696 269.94 100.391 270.642C100.043 271.31 99.4628 271.828 98.7603 272.098C98.0578 272.368 97.2809 272.373 96.5753 272.111C88.3597 268.591 81.6115 260.369 77.2114 253.913V272.695C77.2114 273.473 76.9024 274.22 76.3524 274.77C75.8024 275.321 75.0564 275.63 74.2786 275.63C73.5008 275.63 72.7549 275.321 72.2049 274.77C71.6549 274.22 71.3459 273.473 71.3459 272.695V253.614C66.9457 260.369 60.1976 268.59 51.6974 272.396C50.9926 272.668 50.2121 272.668 49.5071 272.397C48.8021 272.125 48.2229 271.602 47.8819 270.927C47.5769 270.227 47.5598 269.436 47.8343 268.723C48.1089 268.011 48.6528 267.436 49.3483 267.123C61.963 261.537 71.3459 242.171 71.3459 241.871V217.504C62.4962 217.061 53.7776 215.179 45.5318 211.933C44.9762 211.629 44.4796 211.228 44.0654 210.749C43.4818 210.165 33.2172 194.319 48.4656 166.131C52.8647 157.625 51.1137 147.936 43.1972 136.777C42.5991 136.192 35.8653 120.631 38.499 114.76C38.8496 114.025 39.3863 113.395 40.0557 112.933C40.7251 112.47 41.5039 112.192 42.3145 112.124C47.8819 111.54 56.6801 109.189 58.1465 105.669C58.5816 103.642 58.7778 101.571 58.7312 99.4984C58.7476 99.0176 58.8805 98.548 59.1184 98.1301C59.3562 97.7121 59.692 97.3583 60.0968 97.0989C60.5016 96.8396 60.9633 96.6826 61.4421 96.6414C61.921 96.6002 62.4026 96.676 62.8457 96.8624C65.2833 98.2588 67.9746 99.155 70.7623 99.4984V90.6915C70.8141 89.9301 71.1397 89.2133 71.6789 88.6736C72.218 88.134 72.9342 87.8081 73.695 87.7562C74.4726 87.7568 75.2182 88.0662 75.7681 88.6166C76.318 89.1669 76.6272 89.9132 76.6277 90.6915V99.4984C79.6012 99.1609 82.4847 98.2667 85.1279 96.8624C85.5452 96.6459 86.0098 96.5373 86.4797 96.5462C86.9496 96.5551 87.4098 96.6814 87.8186 96.9135C88.2273 97.1456 88.5716 97.4763 88.8203 97.8754C89.0689 98.2746 89.2141 98.7295 89.2424 99.199C89.527 102.434 90.1251 106.253 90.7088 107.136C92.4598 109.474 100.974 111.54 105.958 112.124C106.734 112.184 107.477 112.463 108.1 112.93C108.722 113.397 109.199 114.032 109.475 114.76C111.824 120.347 102.143 136.777 101.857 136.777C94.2262 145.883 93.3425 156.157 99.508 165.847Z" fill="#376F92"/>
<path d="M163.985 134.094V132.042C159.893 132.042 155.811 132.217 151.555 132.217C147.473 132.217 143.382 132.042 139.299 131.877C139.315 132.282 139.256 132.685 139.125 133.068C139.125 133.408 138.96 133.746 138.96 134.094C147.299 134.433 155.641 134.433 163.985 134.094ZM135.894 114.324C136.407 118.758 138.612 122.671 139.125 126.93C139.269 127.719 139.328 128.521 139.299 129.322C147.638 129.66 155.98 129.66 164.323 129.322C164.663 127.783 165.348 126.252 165.853 124.723C166.878 121.993 168.406 118.758 168.241 115.69C168.241 112.282 167.051 109.039 167.216 105.631C167.39 102.91 167.216 100.181 167.39 97.4589C167.39 95.9211 168.406 91.4955 167.728 90.2962C166.978 88.8734 166.125 87.5074 165.175 86.2091C162.795 88.0875 163.811 93.7032 163.811 96.4331C163.811 98.3115 163.646 100.355 163.473 102.223C163.298 104.953 163.646 107.509 160.918 108.188C158.026 108.874 155.985 109.387 153.77 111.429C152.58 112.447 151.893 112.96 151.217 112.96C150.027 113.133 149.34 111.769 147.125 110.238C143.894 108.188 142.869 106.657 142.017 103.076C141.002 99.5025 141.34 95.755 141.34 91.9992C141.34 91.1477 142.017 86.5487 140.662 86.3836C139.464 86.2091 138.447 89.4437 137.935 90.2952C137.257 91.3211 137.762 94.5557 137.762 95.9201V102.058C137.762 106.317 135.382 109.892 135.894 114.324ZM183.903 164.931C181.349 160.844 179.646 156.246 176.753 152.151C173.175 147.039 166.703 142.44 164.663 136.476C160.406 136.65 156.15 136.816 151.728 136.816C147.299 136.816 142.704 136.651 138.274 136.476C136.745 139.545 134.191 142.101 131.977 144.657C124.655 153.342 119.721 163.74 115.464 174.302C112.571 181.292 110.183 183.161 123.464 189.812C130.747 193.313 138.708 195.173 146.787 195.262C159.555 195.262 171.985 191.342 183.564 186.23C185.779 185.213 187.985 184.187 189.184 182.308C192.241 177.371 186.456 169.19 183.903 164.931Z" fill="#FFB957"/>
<path d="M172.056 90.4335H132.334C131.321 90.4332 130.327 90.1583 129.457 89.638C128.587 89.1177 127.875 88.3714 127.395 87.4783C126.915 86.5852 126.686 85.5787 126.731 84.5656C126.777 83.5526 127.096 82.5709 127.654 81.7247L127.797 81.508L152.195 72.0581L176.593 81.509L176.736 81.7247C177.294 82.5708 177.613 83.5524 177.659 84.5654C177.704 85.5783 177.475 86.5847 176.995 87.4778C176.516 88.3709 175.803 89.1172 174.934 89.6376C174.064 90.158 173.07 90.433 172.057 90.4335H172.056ZM128.877 82.8321C128.529 83.4386 128.347 84.1261 128.348 84.8255C128.349 85.5249 128.534 86.2117 128.884 86.8171C129.234 87.4224 129.737 87.925 130.342 88.2744C130.948 88.6239 131.634 88.8079 132.333 88.808H172.057C172.756 88.8077 173.442 88.6236 174.047 88.274C174.652 87.9245 175.155 87.4219 175.505 86.8166C175.855 86.2113 176.04 85.5246 176.041 84.8252C176.042 84.1259 175.859 83.4385 175.511 82.8321L152.196 73.8013L128.877 82.8321Z" fill="#133852"/>
<path d="M152.072 73.7425C151.965 73.7426 151.859 73.7217 151.761 73.6809C151.662 73.6402 151.572 73.5804 151.497 73.5049C151.422 73.4295 151.362 73.3399 151.321 73.2413C151.28 73.1427 151.259 73.037 151.259 72.9302V69.4954C150.027 69.2596 148.928 68.5726 148.176 67.5686C147.423 66.5646 147.072 65.3159 147.191 64.0665C147.309 62.8172 147.889 61.657 148.817 60.8128C149.745 59.9686 150.954 59.5011 152.208 59.5017C153.45 59.5001 154.648 59.9584 155.573 60.7884C156.498 61.6185 157.083 62.7615 157.216 63.9974C157.231 64.1052 157.224 64.2149 157.196 64.3201C157.168 64.4252 157.119 64.5236 157.052 64.6094C156.986 64.6953 156.902 64.7668 156.807 64.8199C156.712 64.8729 156.608 64.9063 156.5 64.9181C156.391 64.9299 156.282 64.9199 156.178 64.8887C156.074 64.8574 155.977 64.8055 155.893 64.7361C155.809 64.6667 155.74 64.5812 155.69 64.4846C155.64 64.3881 155.61 64.2824 155.601 64.1739C155.53 63.5224 155.274 62.905 154.862 62.3954C154.45 61.8858 153.901 61.5054 153.279 61.2996C152.657 61.0939 151.989 61.0714 151.355 61.2349C150.721 61.3985 150.147 61.741 149.702 62.2218C149.257 62.7026 148.96 63.3014 148.845 63.9467C148.731 64.592 148.804 65.2566 149.057 65.8614C149.309 66.4662 149.73 66.9855 150.269 67.3575C150.808 67.7296 151.443 67.9386 152.097 67.9596L152.883 67.9855V72.9292C152.883 73.0359 152.862 73.1417 152.822 73.2403C152.781 73.339 152.721 73.4287 152.646 73.5042C152.57 73.5797 152.481 73.6397 152.382 73.6805C152.284 73.7214 152.178 73.7425 152.072 73.7425Z" fill="#133852"/>
<path d="M57.1822 110.487C60.317 110.487 60.3232 105.61 57.1822 105.61C54.0473 105.61 54.0422 110.487 57.1822 110.487ZM63.8571 116.681C66.992 116.681 66.9982 111.804 63.8571 111.804C60.7223 111.804 60.7171 116.681 63.8571 116.681Z" fill="#F89017"/>
<path d="M60.3973 112.536C60.7143 112.527 61.0152 112.394 61.2362 112.166C61.4571 111.939 61.5807 111.634 61.5807 111.316C61.5807 110.999 61.4571 110.694 61.2362 110.466C61.0152 110.239 60.7143 110.106 60.3973 110.097C60.0803 110.106 59.7794 110.239 59.5584 110.466C59.3375 110.694 59.2139 110.999 59.2139 111.316C59.2139 111.634 59.3375 111.939 59.5584 112.166C59.7794 112.394 60.0803 112.527 60.3973 112.536ZM68.7789 117.412C69.0932 117.399 69.3904 117.265 69.6082 117.038C69.826 116.811 69.9477 116.508 69.9477 116.194C69.9477 115.879 69.826 115.576 69.6082 115.349C69.3904 115.122 69.0932 114.988 68.7789 114.975C68.4646 114.988 68.1675 115.122 67.9496 115.349C67.7318 115.576 67.6102 115.879 67.6102 116.194C67.6102 116.508 67.7318 116.811 67.9496 117.038C68.1675 117.265 68.4646 117.399 68.7789 117.412ZM78.3299 116.73C78.6469 116.721 78.9478 116.588 79.1688 116.361C79.3897 116.133 79.5133 115.828 79.5133 115.511C79.5133 115.193 79.3897 114.888 79.1688 114.661C78.9478 114.433 78.6469 114.301 78.3299 114.291C78.0129 114.301 77.712 114.433 77.491 114.661C77.2701 114.888 77.1465 115.193 77.1465 115.511C77.1465 115.828 77.2701 116.133 77.491 116.361C77.712 116.588 78.0129 116.721 78.3299 116.73ZM86.7095 112.049C87.0265 112.039 87.3274 111.907 87.5483 111.679C87.7693 111.452 87.8929 111.147 87.8929 110.829C87.8929 110.512 87.7693 110.207 87.5483 109.979C87.3274 109.752 87.0265 109.619 86.7095 109.61C86.3925 109.619 86.0915 109.752 85.8706 109.979C85.6496 110.207 85.526 110.512 85.526 110.829C85.526 111.147 85.6496 111.452 85.8706 111.679C86.0915 111.907 86.3925 112.039 86.7095 112.049Z" fill="#CE185E"/>
<path d="M73.9429 119.51C77.0778 119.51 77.084 114.633 73.9429 114.633C70.8081 114.633 70.8029 119.51 73.9429 119.51ZM82.6163 115.755C85.7512 115.755 85.7574 110.877 82.6163 110.877C79.4815 110.877 79.4763 115.755 82.6163 115.755ZM90.6567 110.78C93.7915 110.78 93.7967 105.904 90.6567 105.904C87.5218 105.904 87.5156 110.78 90.6567 110.78Z" fill="#F89017"/>
<path d="M37.9939 138.909C37.6726 138.909 37.3586 138.814 37.0916 138.635C36.8245 138.456 36.6164 138.202 36.4936 137.905C36.3707 137.608 36.3387 137.281 36.4014 136.966C36.4642 136.651 36.6189 136.361 36.8461 136.134L111.569 61.3462C111.72 61.1952 111.899 61.0754 112.096 60.9937C112.293 60.9119 112.504 60.8698 112.718 60.8698C112.931 60.8697 113.142 60.9117 113.339 60.9934C113.536 61.075 113.715 61.1947 113.866 61.3457C114.017 61.4966 114.137 61.6757 114.218 61.873C114.3 62.0702 114.342 62.2816 114.342 62.495C114.342 62.7085 114.3 62.9199 114.219 63.1172C114.137 63.3144 114.017 63.4936 113.867 63.6446L39.1426 138.433C38.9918 138.584 38.8127 138.704 38.6156 138.785C38.4184 138.867 38.2071 138.908 37.9939 138.908V138.909ZM71.0862 142.009C70.7618 142.01 70.4448 141.913 70.176 141.731C69.9071 141.549 69.6989 141.291 69.5779 140.99C69.457 140.689 69.429 140.358 69.4975 140.041C69.566 139.723 69.7278 139.434 69.9622 139.209L116.008 95.1183C116.32 94.8202 116.737 94.6581 117.167 94.6676C117.598 94.6771 118.007 94.8574 118.305 95.1689C118.603 95.4804 118.765 95.8976 118.755 96.3286C118.746 96.7597 118.566 97.1693 118.254 97.4674L72.2081 141.558C71.9064 141.848 71.5044 142.01 71.0862 142.01V142.009ZM147.945 251.947C147.623 251.947 147.309 251.852 147.042 251.673C146.775 251.495 146.567 251.241 146.444 250.944C146.321 250.646 146.289 250.32 146.351 250.004C146.414 249.689 146.569 249.399 146.796 249.172L221.519 174.384C221.67 174.233 221.849 174.113 222.046 174.032C222.243 173.95 222.454 173.908 222.667 173.908C222.881 173.908 223.092 173.95 223.289 174.031C223.486 174.113 223.665 174.233 223.816 174.384C223.967 174.535 224.087 174.714 224.168 174.911C224.25 175.108 224.292 175.319 224.292 175.533C224.292 175.746 224.25 175.958 224.169 176.155C224.087 176.352 223.967 176.532 223.817 176.683L149.093 251.47C148.942 251.621 148.763 251.742 148.566 251.823C148.369 251.905 148.157 251.947 147.944 251.947H147.945ZM181.036 255.048C180.712 255.049 180.394 254.952 180.125 254.77C179.856 254.588 179.648 254.33 179.527 254.029C179.406 253.727 179.378 253.396 179.446 253.079C179.515 252.761 179.677 252.472 179.912 252.247L225.958 208.156C226.27 207.858 226.686 207.696 227.117 207.706C227.548 207.715 227.957 207.895 228.255 208.207C228.553 208.518 228.715 208.935 228.705 209.367C228.696 209.798 228.516 210.207 228.204 210.505L182.158 254.596C181.856 254.886 181.454 255.048 181.036 255.048Z" fill="white"/>
</g>
</svg>
