<svg xmlns="http://www.w3.org/2000/svg" width="15" height="14" viewBox="0 0 15 14" fill="none">
  <path fill-rule="evenodd" clip-rule="evenodd" d="M4.71469 0.042C5.46114 0.00763635 5.69914 0 7.6006 0C9.50206 0 9.74006 0.00827272 10.4859 0.042C11.2317 0.0757273 11.7408 0.194727 12.1862 0.367182C12.6527 0.543455 13.0759 0.819 13.4259 1.17536C13.7823 1.52473 14.0572 1.94727 14.2328 2.41436C14.4059 2.85982 14.5243 3.36891 14.5586 4.11345C14.593 4.86118 14.6006 5.09918 14.6006 7C14.6006 8.90145 14.5923 9.13945 14.5586 9.88591C14.5249 10.6305 14.4059 11.1395 14.2328 11.585C14.0572 12.0522 13.7818 12.4754 13.4259 12.8253C13.0759 13.1816 12.6527 13.4565 12.1862 13.6322C11.7408 13.8053 11.2317 13.9236 10.4872 13.958C9.74006 13.9924 9.50206 14 7.6006 14C5.69914 14 5.46114 13.9917 4.71469 13.958C3.97014 13.9243 3.46105 13.8053 3.01559 13.6322C2.54845 13.4565 2.1252 13.1812 1.77532 12.8253C1.41919 12.4757 1.14361 12.0527 0.967769 11.5856C0.795314 11.1402 0.67695 10.6311 0.642586 9.88655C0.608222 9.13882 0.600586 8.90082 0.600586 7C0.600586 5.09855 0.608859 4.86055 0.642586 4.11473C0.676313 3.36891 0.795314 2.85982 0.967769 2.41436C1.14387 1.94732 1.41966 1.52429 1.77595 1.17473C2.12534 0.818683 2.54816 0.5431 3.01495 0.367182C3.46041 0.194727 3.9695 0.0763636 4.71405 0.042H4.71469ZM10.4292 1.302C9.69106 1.26827 9.4696 1.26127 7.6006 1.26127C5.7316 1.26127 5.51014 1.26827 4.77196 1.302C4.08914 1.33318 3.71877 1.44709 3.47186 1.54318C3.14541 1.67045 2.91186 1.82127 2.66686 2.06627C2.43462 2.29221 2.25589 2.56727 2.14377 2.87127C2.04768 3.11818 1.93377 3.48855 1.90259 4.17136C1.86886 4.90955 1.86186 5.131 1.86186 7C1.86186 8.869 1.86886 9.09045 1.90259 9.82864C1.93377 10.5115 2.04768 10.8818 2.14377 11.1287C2.25577 11.4323 2.43459 11.7078 2.66686 11.9337C2.89277 12.166 3.16832 12.3448 3.47186 12.4568C3.71877 12.5529 4.08914 12.6668 4.77196 12.698C5.51014 12.7317 5.73096 12.7387 7.6006 12.7387C9.47024 12.7387 9.69106 12.7317 10.4292 12.698C11.1121 12.6668 11.4824 12.5529 11.7293 12.4568C12.0558 12.3295 12.2893 12.1787 12.5343 11.9337C12.7666 11.7078 12.9454 11.4323 13.0574 11.1287C13.1535 10.8818 13.2674 10.5115 13.2986 9.82864C13.3323 9.09045 13.3393 8.869 13.3393 7C13.3393 5.131 13.3323 4.90955 13.2986 4.17136C13.2674 3.48855 13.1535 3.11818 13.0574 2.87127C12.9302 2.54482 12.7793 2.31127 12.5343 2.06627C12.3084 1.83405 12.0333 1.65532 11.7293 1.54318C11.4824 1.44709 11.1121 1.33318 10.4292 1.302ZM6.70651 9.15791C7.20584 9.36576 7.76184 9.39382 8.27956 9.23728C8.79727 9.08074 9.24458 8.74931 9.54508 8.29961C9.84559 7.84991 9.98064 7.30983 9.92718 6.77161C9.87372 6.2334 9.63506 5.73044 9.25197 5.34864C9.00775 5.10458 8.71247 4.9177 8.38736 4.80146C8.06225 4.68522 7.71542 4.6425 7.37182 4.67639C7.02823 4.71028 6.69642 4.81993 6.40029 4.99745C6.10416 5.17496 5.85107 5.41593 5.65924 5.703C5.46742 5.99006 5.34163 6.31609 5.29092 6.65761C5.24022 6.99913 5.26587 7.34764 5.36603 7.67806C5.46619 8.00847 5.63836 8.31257 5.87015 8.56846C6.10194 8.82435 6.38758 9.02566 6.70651 9.15791ZM5.05641 4.45582C5.39052 4.12171 5.78716 3.85668 6.2237 3.67587C6.66023 3.49505 7.1281 3.40198 7.6006 3.40198C8.0731 3.40198 8.54097 3.49505 8.9775 3.67587C9.41404 3.85668 9.81068 4.12171 10.1448 4.45582C10.4789 4.78992 10.7439 5.18657 10.9247 5.6231C11.1056 6.05963 11.1986 6.5275 11.1986 7C11.1986 7.4725 11.1056 7.94037 10.9247 8.3769C10.7439 8.81343 10.4789 9.21008 10.1448 9.54418C9.47003 10.2189 8.55486 10.598 7.6006 10.598C6.64635 10.598 5.73117 10.2189 5.05641 9.54418C4.38165 8.86942 4.00258 7.95425 4.00258 7C4.00258 6.04575 4.38165 5.13058 5.05641 4.45582ZM11.9966 3.93782C12.0794 3.85972 12.1457 3.7658 12.1915 3.66162C12.2374 3.55744 12.2619 3.44513 12.2635 3.33132C12.2652 3.21751 12.244 3.10453 12.2012 2.99906C12.1584 2.89359 12.0949 2.79778 12.0144 2.7173C11.9339 2.63682 11.8381 2.5733 11.7326 2.53051C11.6272 2.48772 11.5142 2.46653 11.4004 2.46819C11.2866 2.46985 11.1743 2.49433 11.0701 2.54017C10.9659 2.58602 10.872 2.6523 10.7939 2.73509C10.642 2.89611 10.5588 3.10999 10.5621 3.33132C10.5653 3.55265 10.6546 3.76401 10.8112 3.92054C10.9677 4.07706 11.179 4.16642 11.4004 4.16964C11.6217 4.17287 11.8356 4.08971 11.9966 3.93782Z" fill="black"/>
</svg>