<svg xmlns="http://www.w3.org/2000/svg" width="21" height="22" viewBox="0 0 21 22" fill="none">
<rect y="0.5" width="21" height="21" fill="white"/>
<path d="M18.5583 12.1955C18.5868 13.4609 19.0467 14.6752 19.8569 15.6245C19.9558 15.7428 19.9783 15.91 19.9151 16.0523C19.8518 16.1943 19.7141 16.2851 19.5628 16.2848C19.5281 16.2842 19.4934 16.2797 19.4596 16.2714C18.1041 15.7977 16.8415 15.0772 15.7313 14.1444C14.9449 14.4439 14.1202 14.6216 13.2835 14.6714L13.9487 13.7928C14.5344 13.7049 15.108 13.5449 15.6569 13.3163C15.7917 13.2594 15.9459 13.2851 16.0564 13.3829C16.8002 14.0351 17.6239 14.5832 18.5066 15.0123C18.0258 14.1022 17.7767 13.0808 17.7826 12.0441C17.7823 11.9432 17.8191 11.8461 17.8856 11.7724C18.6088 11.0052 19.0212 9.98149 19.0375 8.91057C19.0375 6.16038 16.193 3.92418 12.6989 3.92418C11.611 3.92009 10.5338 4.14741 9.53471 4.59235L8.34961 4.3366C9.66596 3.53235 11.1696 3.1136 12.699 3.1253C16.6206 3.1253 19.8105 5.72094 19.8105 8.91035C19.7983 10.1272 19.3524 11.2968 18.5583 12.1955Z" fill="#2F2F2F"/>
<path d="M7.99726 16.282L7.99633 16.282C6.85595 16.2841 5.72511 16.0645 4.66242 15.6344L4.38671 15.5228L4.15706 15.7118C3.11676 16.5682 1.95264 17.2473 0.70878 17.7251C1.50803 16.6663 1.97281 15.3778 2.03688 14.0345L2.0466 13.8306L1.91087 13.6781C1.07801 12.7428 0.608587 11.5184 0.597233 10.2416C0.598637 6.99819 3.82717 4.20518 7.99745 4.20518C8.43615 4.20518 8.87435 4.23814 9.30892 4.30361L10.462 4.55244C13.3906 5.40173 15.3993 7.6726 15.4 10.2422C15.394 11.2188 15.1113 12.1707 14.5886 12.9805L13.9476 13.8272C12.6091 15.3019 10.4514 16.282 7.99726 16.282Z" stroke="#2F2F2F"/>
</svg>

