<svg xmlns="http://www.w3.org/2000/svg" width="24" height="22" viewBox="0 0 24 22" fill="none">
<rect y="0.474979" width="21" height="21" fill="white"/>
<path d="M9.07745 8.35208C8.77531 8.49049 8.446 8.56109 8.11312 8.55899H2.907C2.55766 8.55618 2.24694 8.77609 2.13895 9.10245C2.03097 9.42845 2.1504 9.78607 2.43431 9.98561L9.07745 8.35208ZM9.07745 8.35208L9.09283 8.34329L9.10713 8.33873M9.07745 8.35208L9.10713 8.33873M9.10713 8.33873C9.11312 8.33626 9.11827 8.33236 9.12349 8.3284C9.12794 8.32504 9.13243 8.32164 9.13752 8.31905C9.73427 8.04647 10.1894 7.54303 10.3947 6.92862H10.395L12.0048 2.06637C12.1128 1.74353 12.4196 1.52502 12.7657 1.52502C12.8545 1.52502 12.9408 1.53945 13.0218 1.56637L9.10713 8.33873ZM22.8109 9.57641L22.8088 9.5779L18.5977 12.5828C18.5975 12.583 18.5972 12.5831 18.597 12.5833C18.0999 12.9351 17.7282 13.4345 17.537 14.0098C17.3457 14.5855 17.3457 15.2063 17.5374 15.7823C17.5374 15.7824 17.5375 15.7825 17.5375 15.7826L19.1469 20.6471L19.1481 20.6505C19.1864 20.7636 19.1475 20.8921 19.0421 20.9676L19.0418 20.9678C18.9352 21.0442 18.7877 21.0442 18.6805 20.9671L18.3383 20.7206L18.3369 20.722L14.47 17.9579L14.4681 17.9566C13.971 17.6047 13.375 17.4164 12.7643 17.4164C12.1539 17.4164 11.558 17.6048 11.0607 17.9565L11.0752 17.9769L11.059 17.9576L6.85473 20.9637L6.85273 20.9651C6.74601 21.0422 6.59866 21.0427 6.49091 20.9657L6.49082 20.9657C6.38595 20.8907 6.34652 20.7622 6.38502 20.6482L6.38593 20.6454L7.99461 15.7859C7.99466 15.7858 7.99471 15.7856 7.99476 15.7854C8.18681 15.2092 8.18718 14.5875 7.99592 14.011C7.8047 13.4346 7.43211 12.9347 6.93465 12.5823C6.93438 12.5821 6.93412 12.582 6.93385 12.5818L2.72471 9.57859L2.72472 9.57858L2.72181 9.57653C2.61601 9.50217 2.57586 9.37358 2.61359 9.25967L2.61364 9.25951C2.65194 9.14378 2.76595 9.05787 2.90298 9.05897L2.90298 9.05899H2.907H8.11162C8.51666 9.06131 8.91755 8.9753 9.2857 8.80665L9.30164 8.79934C9.33751 8.78422 9.36571 8.76774 9.38505 8.75532C9.97432 8.47529 10.4476 8.00647 10.7293 7.42862H10.7562L10.8697 7.08577L12.479 2.22497C12.479 2.22481 12.4791 2.22465 12.4791 2.22448C12.5176 2.11006 12.6303 2.02502 12.7657 2.02502C12.8963 2.02502 13.006 2.10447 13.048 2.21289L13.0516 2.2235L14.6624 7.08962L14.6628 7.09066C14.8543 7.66493 15.2246 8.16344 15.7201 8.51651L15.7201 8.51654C16.2151 8.8692 16.8099 9.05857 17.4194 9.05899H17.4197L22.6258 9.059L22.6294 9.05898C22.7665 9.05801 22.8806 9.14399 22.9191 9.25959C22.9566 9.37366 22.9164 9.50195 22.8109 9.57641ZM9.42581 8.72666C9.42616 8.72639 9.42587 8.72661 9.42533 8.72702L9.42581 8.72666ZM13.5262 2.06648V2.56637H13.5266H13.6917L15.1371 6.93249C15.2948 7.40534 15.6001 7.81705 16.0103 8.10933C16.42 8.40126 16.9134 8.55864 17.4197 8.55899H22.6258L13.5262 2.06648Z" stroke="#2F2F2F"/>
</svg>