<svg xmlns="http://www.w3.org/2000/svg" width="20" height="20" viewBox="0 0 20 20" fill="none">
  <path d="M15.3109 15.8899C15.5113 15.7044 15.7044 15.5114 15.8898 15.311L19.3828 18.804C19.3832 18.8044 19.3836 18.8049 19.384 18.8053C19.4848 18.9087 19.5236 19.0579 19.4858 19.1975C19.4477 19.3379 19.3381 19.4475 19.1978 19.4857L15.3109 15.8899ZM15.3109 15.8899L18.8041 19.3827C18.8045 19.3831 18.8049 19.3835 18.8053 19.3839C18.9088 19.4848 19.0579 19.5236 19.1976 19.4858L15.3109 15.8899ZM13.6154 2.75348C15.0438 4.18184 15.8525 6.11428 15.8684 8.13286V8.18421C15.8684 10.2222 15.0588 12.1767 13.6177 13.6177L13.6177 13.6177C12.1766 15.0588 10.2221 15.8684 8.18419 15.8684C6.14621 15.8684 4.19167 15.0588 2.7507 13.6177L2.75069 13.6177C1.30959 12.1766 0.5 10.2221 0.5 8.18421C0.5 6.14622 1.3096 4.19168 2.75067 2.7507L2.75069 2.75069C4.19172 1.30965 6.14613 0.500071 8.18392 0.5C10.2212 0.502364 12.1743 1.31285 13.6154 2.75348Z" stroke="#414141"/>
</svg>