<svg xmlns="http://www.w3.org/2000/svg" width="48" height="48" viewBox="0 0 48 48" fill="none">
  <g filter="url(#filter0_b_1592_2444)">
    <circle cx="24" cy="24" r="24" fill="url(#paint0_linear_1592_2444)"/>
  </g>
  <path d="M29.847 22.0428C30.1464 21.1206 30.2234 20.1405 30.0716 19.1828C29.9197 18.2252 29.5434 17.317 28.9734 16.5326C28.4034 15.7482 27.6558 15.1098 26.7919 14.6696C25.9279 14.2295 24.972 14 24.0023 14C23.0327 14 22.0768 14.2295 21.2128 14.6696C20.3488 15.1098 19.6013 15.7482 19.0313 16.5326C18.4613 17.317 18.0849 18.2252 17.9331 19.1828C17.7813 20.1405 17.8583 21.1206 18.1577 22.0428C17.3086 22.3329 16.5332 22.8054 15.8863 23.4272C15.2393 24.049 14.7364 24.805 14.413 25.642C14.0895 26.4791 13.9534 27.3768 14.0141 28.272C14.0748 29.1673 14.3308 30.0384 14.7643 30.8241C15.1978 31.6098 15.7981 32.291 16.523 32.8199C17.248 33.3487 18.08 33.7123 18.9606 33.885C19.8411 34.0578 20.7488 34.0356 21.6198 33.82C22.4909 33.6043 23.3041 33.2005 24.0023 32.6369C24.7006 33.1997 25.5136 33.6028 26.3843 33.8179C27.255 34.033 28.1622 34.0548 29.0423 33.8818C29.9223 33.7088 30.7537 33.3452 31.4782 32.8165C32.2027 32.2878 32.8026 31.6069 33.2359 30.8217C33.6691 30.0364 33.9251 29.1658 33.9859 28.271C34.0468 27.3762 33.9109 26.4789 33.5879 25.6422C33.2649 24.8055 32.7627 24.0497 32.1164 23.4279C31.4701 22.8061 30.6955 22.3333 29.847 22.0428ZM18.8106 20.1472C18.8108 19.3945 18.9746 18.6509 19.2908 17.9678C19.607 17.2847 20.0679 16.6785 20.6417 16.1913C21.2154 15.704 21.8883 15.3474 22.6136 15.146C23.3388 14.9447 24.0992 14.9034 24.8421 15.0252C25.5849 15.1469 26.2923 15.4287 26.9154 15.8511C27.5384 16.2734 28.0622 16.8262 28.4504 17.4711C28.8386 18.116 29.0819 18.8376 29.1635 19.5859C29.2451 20.3341 29.163 21.0912 28.9229 21.8046C28.0596 21.6526 27.1738 21.6874 26.325 21.9065C25.4762 22.1255 24.6842 22.5239 24.0023 23.0748C23.3204 22.524 22.5284 22.1257 21.6796 21.9067C20.8309 21.6877 19.945 21.6531 19.0818 21.8051C18.9015 21.271 18.8099 20.711 18.8106 20.1472ZM25.34 27.8559C25.341 29.1401 24.8642 30.3787 24.0023 31.3307C23.3849 30.647 22.9606 29.8112 22.7732 28.9092C22.5857 28.0073 22.6419 27.0716 22.9359 26.1986C23.6414 26.3225 24.3632 26.3225 25.0688 26.1986C25.2489 26.7326 25.3405 27.2924 25.34 27.8559ZM24.0023 25.3393C23.781 25.3394 23.5599 25.3253 23.3404 25.2971C23.5273 24.9687 23.7492 24.6615 24.0023 24.381C24.2554 24.6614 24.4774 24.9684 24.6643 25.2966C24.4448 25.325 24.2237 25.3392 24.0023 25.3393ZM22.3772 25.0785C21.1536 24.6722 20.1236 23.8272 19.486 22.7066C20.8444 22.5323 22.2165 22.9024 23.303 23.736C22.9364 24.1406 22.6251 24.592 22.3772 25.0785ZM24.7022 23.7355C25.7886 22.9021 27.1606 22.5322 28.5187 22.7066C27.881 23.8272 26.8511 24.6722 25.6275 25.0785C25.3797 24.5919 25.0687 24.1403 24.7022 23.7355ZM14.9562 27.8559C14.9576 26.7636 15.3028 25.6993 15.943 24.8142C16.5832 23.9291 17.4858 23.268 18.5229 22.9247C19.2488 24.3503 20.4997 25.4386 22.0121 25.9604C21.6786 26.988 21.6224 28.0854 21.849 29.1418C22.0757 30.1981 22.5773 31.1758 23.303 31.9761C22.5344 32.5656 21.6162 32.9282 20.6522 33.0228C19.6882 33.1174 18.7169 32.9404 17.8484 32.5116C16.9798 32.0829 16.2486 31.4196 15.7375 30.5968C15.2263 29.774 14.9557 28.8246 14.9562 27.8559ZM27.8557 33.0477C26.7146 33.0488 25.6052 32.672 24.7009 31.9761C25.4266 31.1758 25.928 30.198 26.1547 29.1417C26.3813 28.0854 26.3251 26.988 25.9916 25.9604C27.5044 25.4389 28.7556 24.3505 29.4818 22.9247C30.654 23.3111 31.6503 24.1025 32.2918 25.157C32.9334 26.2115 33.1783 27.46 32.9826 28.6787C32.787 29.8973 32.1636 31.0065 31.2242 31.8071C30.2849 32.6078 29.091 33.0476 27.8567 33.0477H27.8557Z" fill="#414141"/>
  <defs>
    <filter id="filter0_b_1592_2444" x="-7" y="-7" width="62" height="62" filterUnits="userSpaceOnUse" color-interpolation-filters="sRGB">
      <feFlood flood-opacity="0" result="BackgroundImageFix"/>
      <feGaussianBlur in="BackgroundImageFix" stdDeviation="3.5"/>
      <feComposite in2="SourceAlpha" operator="in" result="effect1_backgroundBlur_1592_2444"/>
      <feBlend mode="normal" in="SourceGraphic" in2="effect1_backgroundBlur_1592_2444" result="shape"/>
    </filter>
    <linearGradient id="paint0_linear_1592_2444" x1="48" y1="1.70827e-05" x2="-3.994" y2="2.76986" gradientUnits="userSpaceOnUse">
      <stop stop-color="#F2F2F2"/>
      <stop offset="1" stop-color="#FDFDFD" stop-opacity="0.87"/>
    </linearGradient>
  </defs>
</svg>