<svg xmlns="http://www.w3.org/2000/svg" width="17" height="12" viewBox="0 0 17 12" fill="none">
  <path d="M11.4393 0.217336C11.3855 0.152843 11.3189 0.100263 11.2437 0.0629492C11.1684 0.0256355 11.0863 0.00440673 11.0024 0.000616153C10.9185 -0.00317443 10.8347 0.0105564 10.7564 0.0409333C10.6781 0.0713101 10.607 0.117667 10.5476 0.177047C10.4883 0.236428 10.4419 0.30753 10.4115 0.38582C10.3812 0.46411 10.3674 0.54787 10.3712 0.631761C10.375 0.715653 10.3962 0.797834 10.4335 0.873065C10.4709 0.948297 10.5234 1.01493 10.5879 1.06871L14.9317 5.41754H0.574063C0.419072 5.42576 0.27314 5.49312 0.166338 5.60574C0.0595352 5.71836 0 5.86765 0 6.02286C0 6.17807 0.0595352 6.32737 0.166338 6.43999C0.27314 6.55261 0.419072 6.61997 0.574063 6.62819H14.9317L10.5811 10.9719C10.4716 11.0866 10.4105 11.239 10.4105 11.3976C10.4105 11.5562 10.4716 11.7086 10.5811 11.8233C10.637 11.8793 10.7033 11.9237 10.7764 11.9541C10.8494 11.9844 10.9277 12 11.0068 12C11.0859 12 11.1642 11.9844 11.2373 11.9541C11.3103 11.9237 11.3767 11.8793 11.4325 11.8233L16.8132 6.44259C16.8705 6.38747 16.916 6.32135 16.9471 6.24821C16.9783 6.17506 16.9943 6.09639 16.9943 6.0169C16.9943 5.93742 16.9783 5.85874 16.9471 5.7856C16.916 5.71245 16.8705 5.64634 16.8132 5.59122L11.4393 0.217336Z" fill="#818181"/>
</svg>