<svg xmlns="http://www.w3.org/2000/svg" width="48" height="48" viewBox="0 0 48 48" fill="none">
  <g clip-path="url(#clip0_1511_2087)">
    <mask id="mask0_1511_2087" style="mask-type:luminance" maskUnits="userSpaceOnUse" x="0" y="0" width="48" height="48">
      <path d="M0 0H47.5V47.5H0V0Z" fill="white"/>
    </mask>
    <g mask="url(#mask0_1511_2087)">
      <path d="M36.5579 36.5576C28.0192 45.0963 14.1442 48.2988 4.53918 42.9613C-0.798322 33.3551 2.40418 19.4801 10.9429 10.9426C19.4804 2.40381 33.3554 -0.798691 42.9617 4.53881C48.2992 14.1438 45.0967 28.0188 36.5579 36.5576Z" fill="#662113"/>
    </g>
    <mask id="mask1_1511_2087" style="mask-type:luminance" maskUnits="userSpaceOnUse" x="1" y="1" width="45" height="45">
      <path d="M10.9429 10.9426C2.40418 19.4813 -0.798322 33.3551 4.53918 42.9613C14.1454 48.2988 28.0192 45.0963 36.5579 36.5576C45.0967 28.0188 48.2992 14.1438 42.9617 4.53881C39.7592 2.75881 36.0842 1.92881 32.2892 1.93006C24.7004 1.93006 16.6342 5.25006 10.9429 10.9426Z" fill="white"/>
    </mask>
    <g mask="url(#mask1_1511_2087)">
      <path d="M34.5725 12.9286C34.4564 12.8124 34.3185 12.7202 34.1668 12.6573C34.015 12.5944 33.8524 12.562 33.6881 12.562C33.5238 12.562 33.3612 12.5944 33.2094 12.6573C33.0577 12.7202 32.9198 12.8124 32.8037 12.9286L12.93 32.8024C12.8138 32.9184 12.7217 33.0562 12.6588 33.2079C12.5959 33.3596 12.5635 33.5221 12.5635 33.6863C12.5634 33.8505 12.5957 34.0131 12.6585 34.1648C12.7213 34.3165 12.8133 34.4544 12.9294 34.5705C13.0454 34.6866 13.1832 34.7788 13.3349 34.8417C13.4865 34.9046 13.6491 34.937 13.8133 34.937C13.9775 34.9371 14.1401 34.9048 14.2918 34.842C14.4435 34.7792 14.5813 34.6872 14.6975 34.5711L34.5725 14.6961C34.8068 14.4617 34.9385 14.1438 34.9385 13.8124C34.9385 13.4809 34.8068 13.163 34.5725 12.9286Z" fill="#E1E8ED"/>
      <path d="M18.5996 34.2048C18.4835 34.3211 18.3457 34.4133 18.1939 34.4762C18.0422 34.5391 17.8795 34.5715 17.7152 34.5715C17.551 34.5715 17.3883 34.5391 17.2366 34.4762C17.0848 34.4133 16.947 34.3211 16.8309 34.2048L13.2959 30.6686C13.1765 30.5533 13.0812 30.4154 13.0157 30.2628C12.9502 30.1103 12.9157 29.9463 12.9143 29.7803C12.9129 29.6144 12.9445 29.4498 13.0073 29.2962C13.0702 29.1425 13.163 29.003 13.2804 28.8856C13.3977 28.7682 13.5373 28.6754 13.6909 28.6126C13.8445 28.5497 14.0091 28.5181 14.1751 28.5195C14.3411 28.521 14.5051 28.5555 14.6576 28.621C14.8101 28.6865 14.9481 28.7817 15.0634 28.9011L18.5996 32.4373C18.7158 32.5533 18.808 32.6911 18.8709 32.8427C18.9337 32.9944 18.9661 33.1569 18.9661 33.3211C18.9661 33.4853 18.9337 33.6478 18.8709 33.7995C18.808 33.9511 18.7158 34.0889 18.5996 34.2048ZM23.3846 29.4186C23.2688 29.5351 23.1311 29.6275 22.9794 29.6906C22.8278 29.7537 22.6651 29.7861 22.5009 29.7861C22.3366 29.7861 22.174 29.7537 22.0223 29.6906C21.8706 29.6275 21.7329 29.5351 21.6171 29.4186L18.0809 25.8836C17.8465 25.649 17.7149 25.331 17.715 24.9994C17.7151 24.6678 17.8469 24.3499 18.0815 24.1155C18.316 23.8811 18.6341 23.7495 18.9657 23.7496C19.2973 23.7497 19.6152 23.8815 19.8496 24.1161L23.3846 27.6511C23.5008 27.7671 23.593 27.9048 23.6559 28.0565C23.7187 28.2081 23.7511 28.3707 23.7511 28.5348C23.7511 28.699 23.7187 28.8616 23.6559 29.0132C23.593 29.1649 23.5008 29.3026 23.3846 29.4186ZM29.4196 23.3836C29.3036 23.4998 29.1659 23.5919 29.0142 23.6548C28.8626 23.7177 28.7 23.7501 28.5359 23.7501C28.3717 23.7501 28.2091 23.7177 28.0575 23.6548C27.9058 23.5919 27.7681 23.4998 27.6521 23.3836L24.1171 19.8486C24.001 19.7325 23.9088 19.5947 23.8459 19.4431C23.7831 19.2914 23.7507 19.1288 23.7506 18.9647C23.7505 18.8005 23.7828 18.6379 23.8456 18.4862C23.9084 18.3345 24.0004 18.1966 24.1165 18.0805C24.2325 17.9643 24.3703 17.8722 24.522 17.8093C24.6737 17.7464 24.8362 17.714 25.0004 17.714C25.1646 17.7139 25.3272 17.7462 25.4789 17.809C25.6306 17.8717 25.7685 17.9638 25.8846 18.0798L29.4196 21.6161C29.5359 21.732 29.6282 21.8697 29.6912 22.0214C29.7542 22.173 29.7866 22.3356 29.7866 22.4998C29.7866 22.6641 29.7542 22.8267 29.6912 22.9783C29.6282 23.13 29.5359 23.2677 29.4196 23.3836ZM34.2059 18.5986C33.9715 18.8329 33.6536 18.9646 33.3221 18.9646C32.9907 18.9646 32.6728 18.8329 32.4384 18.5986L28.9021 15.0623C28.6677 14.828 28.536 14.5101 28.536 14.1786C28.536 13.8471 28.6677 13.5292 28.9021 13.2948C29.1365 13.0605 29.4544 12.9288 29.7859 12.9288C30.1173 12.9288 30.4352 13.0605 30.6696 13.2948L34.2059 16.8298C34.3221 16.9459 34.4143 17.0838 34.4772 17.2355C34.5401 17.3873 34.5725 17.5499 34.5725 17.7142C34.5725 17.8785 34.5401 18.0411 34.4772 18.1929C34.4143 18.3446 34.3221 18.4825 34.2059 18.5986ZM20.5496 50.4336L-2.93164 26.9523L-0.797891 24.8173L22.6846 48.2986L20.5496 50.4336ZM48.2996 22.6823L24.8184 -0.798904L26.9534 -2.93391L50.4346 20.5473L48.2996 22.6823Z" fill="#E1E8ED"/>
    </g>
  </g>
  <defs>
    <clipPath id="clip0_1511_2087">
      <rect width="47.5" height="47.5" fill="white"/>
    </clipPath>
  </defs>
</svg>