<svg xmlns="http://www.w3.org/2000/svg" width="16" height="12" viewBox="0 0 16 12" fill="none">
  <g clip-path="url(#clip0_1496_5434)">
    <path d="M15.349 1.46141C14.8081 1.70124 14.227 1.86332 13.617 1.93624C14.2396 1.56304 14.7178 0.972052 14.9429 0.267899C14.3509 0.619163 13.7033 0.866651 13.028 0.999669C12.4779 0.413622 11.6942 0.0473633 10.8268 0.0473633C9.1614 0.0473633 7.81113 1.39756 7.81113 3.06287C7.81113 3.29925 7.83783 3.52937 7.88922 3.75014C5.38299 3.62434 3.16098 2.42382 1.67361 0.599363C1.41409 1.04474 1.26538 1.56281 1.26538 2.11538C1.26538 3.16162 1.7978 4.08459 2.60691 4.62539C2.12803 4.61039 1.65968 4.48105 1.24098 4.24817C1.2408 4.2608 1.2408 4.27343 1.2408 4.28612C1.2408 5.74719 2.28027 6.96602 3.65976 7.24306C3.21569 7.36383 2.7499 7.3815 2.29795 7.29473C2.68167 8.49278 3.79537 9.36459 5.11492 9.38899C4.08286 10.1978 2.78255 10.6799 1.36976 10.6799C1.12632 10.6799 0.886315 10.6656 0.650391 10.6377C1.98492 11.4934 3.57001 11.9926 5.27298 11.9926C10.8198 11.9926 13.8529 7.39751 13.8529 3.41259C13.8529 3.28179 13.8501 3.15175 13.8442 3.02244C14.4346 2.59566 14.9442 2.06705 15.349 1.46141Z" fill="black"/>
  </g>
  <defs>
    <clipPath id="clip0_1496_5434">
      <rect width="14.6986" height="12" fill="white" transform="translate(0.650391)"/>
    </clipPath>
  </defs>
</svg>