
<svg xmlns="http://www.w3.org/2000/svg" width="21" height="20" viewBox="0 0 21 20" fill="none">
<path d="M6.51992 8.98696C6.36421 9.10099 6.23664 9.24982 6.14754 9.422C6.04191 9.62611 5.99432 9.85532 6.00979 10.0846C6.02526 10.3138 6.10322 10.5346 6.23541 10.7226L6.61351 10.4568L6.23541 10.7226C6.36762 10.9107 6.54903 11.0589 6.76001 11.1506C6.97101 11.2423 7.20321 11.2738 7.43106 11.2417C7.60269 11.2175 7.76666 11.1578 7.91296 11.0673L11.9309 17.0405H1.91997C1.54425 17.0405 1.18337 16.8904 0.916857 16.6225C0.650258 16.3544 0.5 15.9903 0.5 15.6101V12.3224C0.5 12.2381 0.533314 12.1579 0.59175 12.0991C0.650095 12.0404 0.728651 12.008 0.809989 12.008H2.24655C2.53952 12.0117 2.82966 11.9507 3.09649 11.8295L2.88962 11.3743L3.09649 11.8295C3.36449 11.7077 3.60227 11.5281 3.79303 11.3037C3.98378 11.0793 4.12286 10.8156 4.20053 10.5314C4.2782 10.2472 4.2926 9.94928 4.24274 9.65887L4.24293 9.65884L4.24022 9.64533C4.14423 9.1658 3.8814 8.73572 3.4981 8.43254C3.11749 8.13147 2.64292 7.97521 2.15836 7.99173H0.809989C0.728651 7.99173 0.650095 7.95927 0.59175 7.90061C0.533314 7.84186 0.5 7.7616 0.5 7.67734V4.38963C0.5 4.00939 0.650258 3.64527 0.916857 3.37722C1.18336 3.10927 1.54425 2.95923 1.91997 2.95923H2.45652L6.51992 8.98696Z" stroke="#2F2F2F"/>
<path d="M14.302 8.74576H14.3095H14.332C14.5799 8.74576 14.8219 8.81966 15.0275 8.9578C15.2331 9.09592 15.393 9.29195 15.4873 9.52079C15.5815 9.74961 15.6061 10.0012 15.5581 10.244C15.5101 10.4867 15.3915 10.7101 15.2169 10.8856L14.8624 10.533L15.2169 10.8856C15.0422 11.0612 14.8194 11.1811 14.5764 11.2297C14.3334 11.2783 14.0816 11.2533 13.8528 11.1581C13.6241 11.0628 13.4291 10.9017 13.292 10.6955C13.1551 10.4894 13.0821 10.2474 13.0821 10L14.302 8.74576ZM14.302 8.74576L14.2945 8.74598M14.302 8.74576L14.2945 8.74598M14.2945 8.74598C13.9686 8.75582 13.66 8.89291 13.4339 9.1273C13.2079 9.36156 13.082 9.67457 13.0821 9.99982L14.2945 8.74598ZM5.91429 2.73753L6.06283 2.95919H6.32965H19.0795C19.4552 2.95919 19.8161 3.10923 20.0826 3.37719C20.3492 3.64523 20.4995 4.00936 20.4995 4.38959V7.67731C20.4995 7.76156 20.4661 7.84182 20.4077 7.90057C20.3494 7.95923 20.2708 7.99169 20.1895 7.99169H18.8411C18.3565 7.97518 17.882 8.13144 17.5014 8.4325C17.1181 8.73569 16.8552 9.16576 16.7592 9.6453L16.7591 9.64526L16.7567 9.65883C16.7069 9.94924 16.7213 10.2471 16.7989 10.5313C16.8766 10.8156 17.0157 11.0793 17.2064 11.3037C17.3972 11.5281 17.635 11.7077 17.903 11.8295C18.1698 11.9507 18.4599 12.0117 18.7529 12.0079H20.1895C20.2708 12.0079 20.3494 12.0404 20.4077 12.0991C20.4661 12.1578 20.4995 12.2381 20.4995 12.3223V15.61V15.6101C20.4995 15.9874 20.3515 16.349 20.0885 16.6166C19.8262 16.8835 19.4707 17.0354 19.0988 17.0404H16.4995H15.5741L16.0813 17.8145L16.9213 19.0964L16.9213 19.0964L16.9247 19.1015C16.9433 19.1292 16.9564 19.1605 16.9631 19.1935L17.4531 19.094L16.9631 19.1935C16.9699 19.2266 16.97 19.2607 16.9636 19.2938C16.9572 19.327 16.9444 19.3584 16.926 19.3863L17.3435 19.6614L16.926 19.3863C16.9076 19.4141 16.8841 19.4379 16.8568 19.4564L16.8558 19.4571C16.8286 19.4756 16.7982 19.4884 16.7663 19.495C16.7344 19.5015 16.7015 19.5017 16.6696 19.4954C16.6376 19.4892 16.6071 19.4767 16.5797 19.4584C16.5523 19.4402 16.5286 19.4166 16.5101 19.3888L16.5094 19.3879L4.07487 0.898673C4.07484 0.898625 4.07481 0.898576 4.07477 0.898527C4.03713 0.842352 4.02299 0.77301 4.03595 0.705887C4.04892 0.638751 4.08774 0.580316 4.14288 0.542914C4.19791 0.50558 4.265 0.491982 4.32953 0.504585C4.39407 0.517189 4.45176 0.555189 4.48941 0.61123C4.48944 0.611268 4.48946 0.611305 4.48949 0.611343L5.91429 2.73753Z" stroke="#2F2F2F"/>
</svg>