<svg xmlns="http://www.w3.org/2000/svg" width="23" height="22" viewBox="0 0 23 22" fill="none">
<path d="M12.419 17.2923C12.4176 18.1572 12.5972 19.0112 12.9444 19.7999L11.4165 20.8864L9.81154 19.7448C7.9093 18.3199 6.74623 17.4328 5.26712 16.0871C3.83991 14.7869 2.29168 13.2347 1.34933 11.3995C1.34903 11.3988 1.3483 11.3972 1.34716 11.3948C1.31131 11.3171 0.871871 10.3652 0.671146 9.56063C0.536577 8.96902 0.480954 8.3622 0.505733 7.75598C0.591922 6.05158 1.38094 4.40247 2.55141 3.15391C3.72375 1.90335 5.24087 1.09375 6.74437 1.0063C7.44048 0.972891 8.13461 1.10479 8.76996 1.39122L8.77004 1.39126C9.15149 1.56314 9.51027 1.7814 9.83827 2.0411L11.0923 3.10871L11.4166 3.38482L11.7408 3.10851L12.9939 2.04034C13.8965 1.33181 14.9463 0.951481 16.0892 1.00498C17.5929 1.09252 19.1099 1.9021 20.282 3.15255C21.4524 4.4011 22.2412 6.0502 22.3272 7.7546C22.352 8.36244 22.296 8.97089 22.1607 9.56399L22.1587 9.57265L22.151 9.60328C22.1432 9.63384 22.1312 9.67974 22.1152 9.73791C22.0831 9.85434 22.0358 10.0181 21.9755 10.2051C21.8528 10.5855 21.6848 11.0355 21.4936 11.3792L21.4897 11.3861L21.4861 11.3932C21.4375 11.4876 21.3875 11.5811 21.3361 11.6738C20.5027 11.2752 19.589 11.066 18.661 11.0641C17.5662 11.0619 16.4901 11.3483 15.5412 11.8944C14.5923 12.4404 13.8041 13.227 13.256 14.1747C12.7079 15.1223 12.4192 16.1976 12.419 17.2923ZM12.419 17.2923C12.419 17.2922 12.419 17.292 12.419 17.2919L12.919 17.2927L12.419 17.2927C12.419 17.2925 12.419 17.2924 12.419 17.2923Z" stroke="#2F2F2F"/>
<path d="M18.6324 13.0828C17.8001 13.0828 16.9865 13.3296 16.2944 13.792C15.6023 14.2544 15.0629 14.9116 14.7443 15.6805C14.4257 16.4495 14.3423 17.2956 14.5046 18.112C14.6669 18.9283 15.0676 19.6782 15.656 20.2669C16.2445 20.8555 16.9942 21.2564 17.8105 21.419C18.6268 21.5815 19.473 21.4984 20.2421 21.18C21.0111 20.8617 21.6685 20.3225 22.1311 19.6305C22.5937 18.9386 22.8408 18.1251 22.841 17.2927C22.8412 16.7399 22.7325 16.1925 22.521 15.6818C22.3096 15.171 21.9996 14.7069 21.6088 14.316C21.218 13.925 20.754 13.6149 20.2433 13.4033C19.7326 13.1917 19.1852 13.0828 18.6324 13.0828ZM21.3398 17.8729C21.2814 18.1009 21.048 18.2906 20.8168 18.3214C20.7485 18.3338 20.1604 18.3513 19.724 18.366C19.7106 18.8029 19.6932 19.3924 19.6793 19.4593C19.6485 19.6905 19.4589 19.9238 19.2308 19.9823C18.8479 20.0733 18.449 20.0733 18.0661 19.9823C17.8381 19.9238 17.648 19.6905 17.6199 19.4593C17.6074 19.391 17.59 18.8029 17.5753 18.366C17.1388 18.353 16.5163 18.3356 16.4476 18.3214C16.2164 18.2906 15.983 18.1009 15.925 17.8729C15.8334 17.49 15.8334 17.091 15.925 16.7082C15.983 16.4801 16.2164 16.29 16.4476 16.2597C16.5163 16.2472 17.1388 16.2298 17.5753 16.215C17.5886 15.7782 17.606 15.1887 17.6199 15.1217C17.6502 14.891 17.8403 14.6576 18.0661 14.5992C18.449 14.5081 18.8479 14.5081 19.2308 14.5992C19.4589 14.6576 19.6485 14.891 19.6793 15.1217C19.6918 15.1905 19.7092 15.7782 19.724 16.215C20.1604 16.2284 20.7503 16.2458 20.8168 16.2597C21.048 16.29 21.2814 16.4801 21.3398 16.7082C21.4309 17.0911 21.4309 17.49 21.3398 17.8729Z" fill="#2F2F2F"/>
</svg>
